<svg width="23" height="24" viewBox="0 0 23 24" fill="none" xmlns="http://www.w3.org/2000/svg">
<path d="M5.989 2.41675C4.80665 2.41675 3.83275 3.39065 3.83275 4.573V18.3509C3.82007 18.4281 3.82007 18.5068 3.83275 18.5839V19.4272C3.83275 20.6095 4.80665 21.5834 5.989 21.5834H18.4473C18.5426 21.5848 18.6371 21.5672 18.7255 21.5316C18.8139 21.4961 18.8943 21.4434 18.9622 21.3765C19.03 21.3097 19.0839 21.23 19.1206 21.1421C19.1574 21.0542 19.1763 20.9599 19.1763 20.8647C19.1763 20.7694 19.1574 20.6751 19.1206 20.5872C19.0839 20.4994 19.03 20.4197 18.9622 20.3528C18.8943 20.2859 18.8139 20.2332 18.7255 20.1977C18.6371 20.1622 18.5426 20.1446 18.4473 20.1459H5.989C5.58338 20.1459 5.27025 19.8328 5.27025 19.4272V19.1876H18.4473C18.638 19.1876 18.8208 19.1118 18.9555 18.977C19.0903 18.8423 19.1661 18.6595 19.1661 18.4688V4.573C19.1661 3.39065 18.1922 2.41675 17.0098 2.41675H5.989ZM5.989 3.85425H17.0098C17.4154 3.85425 17.7286 4.16738 17.7286 4.573V17.7501H5.27025V4.573C5.27025 4.16738 5.58338 3.85425 5.989 3.85425Z" fill="#388B40"/>
<path d="M13.025 6.56953H14.9334L15.3327 5.29175H8.06532L7.66602 6.56953H10.2216C11.2035 6.56953 12.0283 7.2065 12.3293 8.08689H8.06532L7.66602 9.36466H12.3785C12.1293 10.3275 11.2623 11.0417 10.2216 11.0417H7.66602V12.0231L12.3778 16.7917H14.0549V16.632L9.58268 12.1598C9.97496 12.1598 10.4407 12.1598 10.541 12.1598C12.2021 12.1598 13.5713 10.9497 13.839 9.36466H14.9334L15.3327 8.08689H13.8134C13.6875 7.50933 13.4064 6.99375 13.025 6.56953Z" fill="#388B40"/>
</svg>
