<svg width="32" height="32" viewBox="0 0 32 32" fill="none" xmlns="http://www.w3.org/2000/svg">
<path fill-rule="evenodd" clip-rule="evenodd" d="M0 32H32C23.1636 32 16 24.8367 16 16C16 7.16333 23.1636 0 32 0H0C8.83643 0 16 7.16333 16 16C16 24.8367 8.83643 32 0 32Z" fill="white"/>
<mask id="mask0_92_3" style="mask-type:alpha" maskUnits="userSpaceOnUse" x="0" y="0" width="32" height="32">
<path fill-rule="evenodd" clip-rule="evenodd" d="M0 32H32C23.1634 32 16 24.8366 16 16C16 7.16344 23.1634 0 32 0H0C8.83656 0 16 7.16344 16 16C16 24.8366 8.83656 32 0 32Z" fill="white"/>
</mask>
<g mask="url(#mask0_92_3)">
<rect x="-12" y="-13" width="57" height="29" fill="#388B40"/>
</g>
</svg>
