<svg width="21" height="21" viewBox="0 0 21 21" fill="none" xmlns="http://www.w3.org/2000/svg">
<g clip-path="url(#clip0_10_748)">
<path d="M6.39844 0.164062C6.12609 0.164062 5.90625 0.383906 5.90625 0.65625V2.78906H4.75781C2.6775 2.78906 0.984375 4.48219 0.984375 6.5625V17.0625C0.984375 19.1428 2.6775 20.8359 4.75781 20.8359H16.2422C18.3225 20.8359 20.0156 19.1428 20.0156 17.0625V6.5625C20.0156 4.48219 18.3225 2.78906 16.2422 2.78906H15.0938V0.65625C15.0938 0.383906 14.8739 0.164062 14.6016 0.164062C14.3292 0.164062 14.1094 0.383906 14.1094 0.65625V2.78906H6.89062V0.65625C6.89062 0.383906 6.67078 0.164062 6.39844 0.164062ZM19.0312 17.0625C19.0312 18.5998 17.7795 19.8516 16.2422 19.8516H4.75781C3.22055 19.8516 1.96875 18.5998 1.96875 17.0625V7.05469H19.0312V17.0625Z" fill="#388B40"/>
<path d="M11.893 9.22247H13.6354L14 8.00024H7.36458L7 9.22247H9.33333C10.2299 9.22247 10.983 9.83174 11.2577 10.6739H7.36458L7 11.8961H11.3027C11.0752 12.817 10.2836 13.5002 9.33333 13.5002H7V14.4389L11.3021 19.0002H12.8333V18.8475L8.75 14.5697C9.10817 14.5697 9.53342 14.5697 9.625 14.5697C11.1417 14.5697 12.3917 13.4122 12.6362 11.8961H13.6354L14 10.6739H12.6128C12.4979 10.1214 12.2412 9.62824 11.893 9.22247Z" fill="#388B40"/>
</g>
<defs>
<clipPath id="clip0_10_748">
<rect width="21" height="21" fill="white"/>
</clipPath>
</defs>
</svg>
