<svg width="20" height="20" viewBox="0 0 20 20" fill="none" xmlns="http://www.w3.org/2000/svg">
<path d="M8.16683 0.833252C7.66083 0.833252 7.25016 1.24392 7.25016 1.74992V2.66659H0.833496V4.49992H7.25016V5.41659C7.25016 5.92259 7.66083 6.33325 8.16683 6.33325H9.0835C9.5895 6.33325 10.0002 5.92259 10.0002 5.41659V1.74992C10.0002 1.24392 9.5895 0.833252 9.0835 0.833252H8.16683ZM11.8335 2.66659V4.49992H19.1668V2.66659H11.8335ZM12.7502 7.24992C12.2442 7.24992 11.8335 7.66059 11.8335 8.16659V9.08325H0.833496V10.9166H11.8335V11.8333C11.8335 12.3393 12.2442 12.7499 12.7502 12.7499H13.6668C14.1728 12.7499 14.5835 12.3393 14.5835 11.8333V8.16659C14.5835 7.66059 14.1728 7.24992 13.6668 7.24992H12.7502ZM16.4168 9.08325V10.9166H19.1668V9.08325H16.4168ZM3.5835 13.6666C3.0775 13.6666 2.66683 14.0773 2.66683 14.5833V15.4999H0.833496V17.3333H2.66683V18.2499C2.66683 18.7559 3.0775 19.1666 3.5835 19.1666H4.50016C5.00616 19.1666 5.41683 18.7559 5.41683 18.2499V14.5833C5.41683 14.0773 5.00616 13.6666 4.50016 13.6666H3.5835ZM7.25016 15.4999V17.3333H19.1668V15.4999H7.25016Z" fill="#8C8C8C"/>
</svg>
