<svg width="23" height="23" viewBox="0 0 23 23" fill="none" xmlns="http://www.w3.org/2000/svg">
<path d="M6.46875 2.875C5.28636 2.875 4.3125 3.84886 4.3125 5.03125V11.5H5.75V5.03125C5.75 4.62664 6.06414 4.3125 6.46875 4.3125H12.9375V8.625H17.25V11.5H18.6875V7.60864L13.9539 2.875H6.46875ZM14.375 5.32886L16.2336 7.1875H14.375V5.32886ZM4.3125 12.9375V20.125H5.75V17.25H6.46875C7.65114 17.25 8.625 16.2761 8.625 15.0938C8.625 13.9114 7.65114 12.9375 6.46875 12.9375H4.3125ZM10.0625 12.9375V20.125H12.2188C13.4011 20.125 14.375 19.1511 14.375 17.9688V15.0938C14.375 13.9114 13.4011 12.9375 12.2188 12.9375H10.0625ZM15.8125 12.9375V20.125H17.25V17.25H18.6875V15.8125H17.25V14.375H20.125V12.9375H15.8125ZM5.75 14.375H6.46875C6.87336 14.375 7.1875 14.6891 7.1875 15.0938C7.1875 15.4984 6.87336 15.8125 6.46875 15.8125H5.75V14.375ZM11.5 14.375H12.2188C12.6234 14.375 12.9375 14.6891 12.9375 15.0938V17.9688C12.9375 18.3734 12.6234 18.6875 12.2188 18.6875H11.5V14.375Z" fill="#8C8C8C"/>
</svg>
