<svg width="25" height="24" viewBox="0 0 25 24" fill="none" xmlns="http://www.w3.org/2000/svg">
<path d="M19.577 4.928C17.691 3.041 15.183 2.001 12.511 2C7.005 2 2.524 6.479 2.522 11.985C2.521 13.745 2.981 15.463 3.855 16.977L2.5 22L7.733 20.763C9.192 21.559 10.834 21.978 12.506 21.979H12.51C18.015 21.979 22.496 17.499 22.499 11.994C22.501 9.325 21.463 6.816 19.577 4.928ZM17.398 15.554C17.19 16.137 16.171 16.699 15.713 16.74C15.255 16.782 14.826 16.947 12.718 16.116C10.181 15.116 8.579 12.515 8.455 12.349C8.33 12.182 7.436 10.996 7.436 9.768C7.436 8.54 8.081 7.936 8.31 7.687C8.539 7.437 8.809 7.375 8.976 7.375C9.142 7.375 9.309 7.375 9.454 7.381C9.632 7.388 9.829 7.397 10.016 7.812C10.238 8.306 10.723 9.54 10.785 9.665C10.847 9.79 10.889 9.936 10.806 10.102C10.723 10.268 10.681 10.372 10.557 10.518C10.432 10.664 10.295 10.843 10.183 10.955C10.058 11.079 9.928 11.215 10.073 11.464C10.219 11.714 10.719 12.531 11.461 13.192C12.415 14.042 13.218 14.305 13.468 14.431C13.718 14.556 13.863 14.535 14.009 14.368C14.155 14.202 14.633 13.64 14.799 13.39C14.965 13.14 15.132 13.182 15.361 13.265C15.59 13.348 16.817 13.952 17.066 14.077C17.316 14.202 17.482 14.264 17.544 14.368C17.606 14.471 17.606 14.971 17.398 15.554Z" fill="#959595"/>
</svg>
