<svg width="396" height="100" viewBox="0 0 396 100" fill="none" xmlns="http://www.w3.org/2000/svg">
<mask id="mask0_65_342" style="mask-type:luminance" maskUnits="userSpaceOnUse" x="60" y="11" width="336" height="80">
<path d="M396 11H60V91H396V11Z" fill="white"/>
</mask>
<g mask="url(#mask0_65_342)">
<path d="M376 11H80C68.9543 11 60 19.9543 60 31V71C60 82.0457 68.9543 91 80 91H376C387.046 91 396 82.0457 396 71V31C396 19.9543 387.046 11 376 11Z" fill="#388B40"/>
</g>
<path d="M284.01 31.5C289.783 21.5 304.217 21.5 309.99 31.5L349.828 100.5C355.601 110.5 348.384 123 336.837 123H257.163C245.616 123 238.399 110.5 244.172 100.5L284.01 31.5Z" stroke="white" stroke-opacity="0.05" stroke-width="10"/>
<path d="M329.239 62.9185C333.133 56.1743 342.867 56.1743 346.761 62.9185L373.628 109.453C377.522 116.198 372.654 124.628 364.867 124.628H311.133C303.346 124.628 298.478 116.198 302.372 109.453L329.239 62.9185Z" stroke="white" stroke-opacity="0.05" stroke-width="6.74419"/>
<path d="M132.45 38.9999L137.328 26.3999H139.308L144.15 38.9999H142.08L139.2 31.4039C139.164 31.3199 139.092 31.1159 138.984 30.7919C138.888 30.4679 138.774 30.1079 138.642 29.7119C138.51 29.3159 138.39 28.9559 138.282 28.6319C138.174 28.2959 138.102 28.0799 138.066 27.9839L138.48 27.9659C138.408 28.1699 138.318 28.4279 138.21 28.7399C138.114 29.0519 138.006 29.3819 137.886 29.7299C137.778 30.0779 137.67 30.4079 137.562 30.7199C137.454 31.0199 137.364 31.2719 137.292 31.4759L134.43 38.9999H132.45ZM134.61 35.8679L135.33 33.9959H141.054L141.882 35.8679H134.61ZM149.49 39.1799C148.626 39.1799 147.852 38.9699 147.168 38.5499C146.496 38.1179 145.962 37.5359 145.566 36.8039C145.17 36.0599 144.972 35.2139 144.972 34.2659C144.972 33.3179 145.164 32.4779 145.548 31.7459C145.944 31.0019 146.478 30.4199 147.15 29.9999C147.822 29.5679 148.584 29.3519 149.436 29.3519C149.904 29.3519 150.354 29.4299 150.786 29.5859C151.23 29.7299 151.626 29.9339 151.974 30.1979C152.322 30.4499 152.592 30.7319 152.784 31.0439C152.988 31.3439 153.09 31.6499 153.09 31.9619L152.55 31.9979V25.6799H154.404V38.9999H152.55V36.7499H152.91C152.91 37.0379 152.814 37.3259 152.622 37.6139C152.43 37.8899 152.172 38.1479 151.848 38.3879C151.536 38.6279 151.17 38.8199 150.75 38.9639C150.342 39.1079 149.922 39.1799 149.49 39.1799ZM149.742 37.5779C150.306 37.5779 150.804 37.4339 151.236 37.1459C151.668 36.8579 152.004 36.4679 152.244 35.9759C152.496 35.4719 152.622 34.9019 152.622 34.2659C152.622 33.6299 152.496 33.0659 152.244 32.5739C152.004 32.0699 151.668 31.6739 151.236 31.3859C150.804 31.0979 150.306 30.9539 149.742 30.9539C149.178 30.9539 148.68 31.0979 148.248 31.3859C147.816 31.6739 147.474 32.0699 147.222 32.5739C146.982 33.0659 146.862 33.6299 146.862 34.2659C146.862 34.9019 146.982 35.4719 147.222 35.9759C147.474 36.4679 147.816 36.8579 148.248 37.1459C148.68 37.4339 149.178 37.5779 149.742 37.5779ZM160.898 39.1799C160.034 39.1799 159.26 38.9699 158.576 38.5499C157.904 38.1179 157.37 37.5359 156.974 36.8039C156.578 36.0599 156.38 35.2139 156.38 34.2659C156.38 33.3179 156.572 32.4779 156.956 31.7459C157.352 31.0019 157.886 30.4199 158.558 29.9999C159.23 29.5679 159.992 29.3519 160.844 29.3519C161.312 29.3519 161.762 29.4299 162.194 29.5859C162.638 29.7299 163.034 29.9339 163.382 30.1979C163.73 30.4499 164 30.7319 164.192 31.0439C164.396 31.3439 164.498 31.6499 164.498 31.9619L163.958 31.9979V25.6799H165.812V38.9999H163.958V36.7499H164.318C164.318 37.0379 164.222 37.3259 164.03 37.6139C163.838 37.8899 163.58 38.1479 163.256 38.3879C162.944 38.6279 162.578 38.8199 162.158 38.9639C161.75 39.1079 161.33 39.1799 160.898 39.1799ZM161.15 37.5779C161.714 37.5779 162.212 37.4339 162.644 37.1459C163.076 36.8579 163.412 36.4679 163.652 35.9759C163.904 35.4719 164.03 34.9019 164.03 34.2659C164.03 33.6299 163.904 33.0659 163.652 32.5739C163.412 32.0699 163.076 31.6739 162.644 31.3859C162.212 31.0979 161.714 30.9539 161.15 30.9539C160.586 30.9539 160.088 31.0979 159.656 31.3859C159.224 31.6739 158.882 32.0699 158.63 32.5739C158.39 33.0659 158.27 33.6299 158.27 34.2659C158.27 34.9019 158.39 35.4719 158.63 35.9759C158.882 36.4679 159.224 36.8579 159.656 37.1459C160.088 37.4339 160.586 37.5779 161.15 37.5779ZM174.993 43.1399L176.901 38.7299L176.919 40.2059L172.203 29.5499H174.363L177.315 36.4979C177.375 36.6179 177.447 36.8039 177.531 37.0559C177.615 37.2959 177.687 37.5359 177.747 37.7759L177.279 37.8839C177.375 37.6319 177.465 37.3799 177.549 37.1279C177.645 36.8759 177.735 36.6239 177.819 36.3719L180.285 29.5499H182.481L178.593 38.9999L176.991 43.1399H174.993ZM187.94 39.1799C187.016 39.1799 186.188 38.9699 185.456 38.5499C184.736 38.1179 184.166 37.5359 183.746 36.8039C183.326 36.0599 183.116 35.2139 183.116 34.2659C183.116 33.3179 183.326 32.4779 183.746 31.7459C184.166 31.0019 184.736 30.4199 185.456 29.9999C186.188 29.5679 187.016 29.3519 187.94 29.3519C188.852 29.3519 189.668 29.5679 190.388 29.9999C191.12 30.4199 191.696 31.0019 192.116 31.7459C192.536 32.4779 192.746 33.3179 192.746 34.2659C192.746 35.2139 192.536 36.0599 192.116 36.8039C191.696 37.5359 191.12 38.1179 190.388 38.5499C189.668 38.9699 188.852 39.1799 187.94 39.1799ZM187.94 37.4879C188.504 37.4879 189.008 37.3499 189.452 37.0739C189.896 36.7859 190.244 36.4019 190.496 35.9219C190.748 35.4299 190.868 34.8779 190.856 34.2659C190.868 33.6419 190.748 33.0899 190.496 32.6099C190.244 32.1179 189.896 31.7339 189.452 31.4579C189.008 31.1819 188.504 31.0439 187.94 31.0439C187.376 31.0439 186.866 31.1879 186.41 31.4759C185.966 31.7519 185.618 32.1359 185.366 32.6279C185.114 33.1079 184.994 33.6539 185.006 34.2659C184.994 34.8779 185.114 35.4299 185.366 35.9219C185.618 36.4019 185.966 36.7859 186.41 37.0739C186.866 37.3499 187.376 37.4879 187.94 37.4879ZM198.079 39.1799C197.407 39.1799 196.819 39.0239 196.315 38.7119C195.823 38.3999 195.439 37.9619 195.163 37.3979C194.899 36.8339 194.767 36.1619 194.767 35.3819V29.5499H196.621V34.8779C196.621 35.4299 196.705 35.9099 196.873 36.3179C197.053 36.7139 197.305 37.0199 197.629 37.2359C197.965 37.4519 198.367 37.5599 198.835 37.5599C199.183 37.5599 199.501 37.5059 199.789 37.3979C200.077 37.2779 200.323 37.1159 200.527 36.9119C200.743 36.7079 200.911 36.4619 201.031 36.1739C201.151 35.8859 201.211 35.5739 201.211 35.2379V29.5499H203.065V38.9999H201.211V37.0199L201.535 36.8039C201.391 37.2479 201.145 37.6499 200.797 38.0099C200.461 38.3699 200.059 38.6579 199.591 38.8739C199.123 39.0779 198.619 39.1799 198.079 39.1799ZM205.665 38.9999V29.5499H207.537V32.5199L207.357 31.7999C207.489 31.3439 207.711 30.9299 208.023 30.5579C208.347 30.1859 208.713 29.8919 209.121 29.6759C209.541 29.4599 209.973 29.3519 210.417 29.3519C210.621 29.3519 210.813 29.3699 210.993 29.4059C211.185 29.4419 211.335 29.4839 211.443 29.5319L210.957 31.5479C210.813 31.4879 210.651 31.4399 210.471 31.4039C210.303 31.3559 210.135 31.3319 209.967 31.3319C209.643 31.3319 209.331 31.3979 209.031 31.5299C208.743 31.6499 208.485 31.8239 208.257 32.0519C208.041 32.2679 207.867 32.5259 207.735 32.8259C207.603 33.1139 207.537 33.4319 207.537 33.7799V38.9999H205.665ZM218.438 38.9999V26.3999H223.694C224.498 26.3999 225.176 26.5199 225.728 26.7599C226.28 26.9999 226.694 27.3599 226.97 27.8399C227.258 28.3079 227.402 28.8839 227.402 29.5679C227.402 30.2519 227.21 30.8339 226.826 31.3139C226.454 31.7939 225.932 32.1239 225.26 32.3039V31.9439C225.824 32.0639 226.316 32.2799 226.736 32.5919C227.156 32.8919 227.48 33.2699 227.708 33.7259C227.948 34.1819 228.068 34.7039 228.068 35.2919C228.068 35.8919 227.972 36.4259 227.78 36.8939C227.6 37.3499 227.324 37.7339 226.952 38.0459C226.592 38.3579 226.154 38.5979 225.638 38.7659C225.122 38.9219 224.534 38.9999 223.874 38.9999H218.438ZM220.382 37.1279H223.766C224.258 37.1279 224.672 37.0559 225.008 36.9119C225.356 36.7679 225.62 36.5579 225.8 36.2819C225.992 35.9939 226.088 35.6519 226.088 35.2559C226.088 34.8839 225.986 34.5659 225.782 34.3019C225.59 34.0379 225.314 33.8399 224.954 33.7079C224.594 33.5639 224.168 33.4919 223.676 33.4919H220.382V37.1279ZM220.382 31.6199H223.586C223.946 31.6199 224.264 31.5479 224.54 31.4039C224.828 31.2599 225.05 31.0619 225.206 30.8099C225.374 30.5579 225.458 30.2699 225.458 29.9459C225.458 29.4059 225.278 28.9919 224.918 28.7039C224.558 28.4159 224.042 28.2719 223.37 28.2719H220.382V31.6199ZM233.84 39.1799C233.06 39.1799 232.346 38.9639 231.698 38.5319C231.062 38.0999 230.552 37.5119 230.168 36.7679C229.784 36.0239 229.592 35.1839 229.592 34.2479C229.592 33.2999 229.784 32.4599 230.168 31.7279C230.564 30.9839 231.092 30.4019 231.752 29.9819C232.424 29.5619 233.174 29.3519 234.002 29.3519C234.494 29.3519 234.944 29.4239 235.352 29.5679C235.76 29.7119 236.114 29.9159 236.414 30.1799C236.726 30.4319 236.978 30.7259 237.17 31.0619C237.374 31.3979 237.5 31.7579 237.548 32.1419L237.134 31.9979V29.5499H239.006V38.9999H237.134V36.7499L237.566 36.6239C237.494 36.9479 237.344 37.2659 237.116 37.5779C236.9 37.8779 236.618 38.1479 236.27 38.3879C235.934 38.6279 235.556 38.8199 235.136 38.9639C234.728 39.1079 234.296 39.1799 233.84 39.1799ZM234.326 37.4699C234.89 37.4699 235.388 37.3319 235.82 37.0559C236.252 36.7799 236.588 36.4019 236.828 35.9219C237.08 35.4299 237.206 34.8719 237.206 34.2479C237.206 33.6359 237.08 33.0899 236.828 32.6099C236.588 32.1299 236.252 31.7519 235.82 31.4759C235.388 31.1999 234.89 31.0619 234.326 31.0619C233.774 31.0619 233.282 31.1999 232.85 31.4759C232.43 31.7519 232.094 32.1299 231.842 32.6099C231.602 33.0899 231.482 33.6359 231.482 34.2479C231.482 34.8719 231.602 35.4299 231.842 35.9219C232.094 36.4019 232.43 36.7799 232.85 37.0559C233.282 37.3319 233.774 37.4699 234.326 37.4699ZM241.595 38.9999V29.5499H243.449V31.4939L243.125 31.7099C243.245 31.2899 243.479 30.9059 243.827 30.5579C244.175 30.1979 244.589 29.9099 245.069 29.6939C245.549 29.4659 246.041 29.3519 246.545 29.3519C247.265 29.3519 247.865 29.4959 248.345 29.7839C248.825 30.0599 249.185 30.4859 249.425 31.0619C249.665 31.6379 249.785 32.3639 249.785 33.2399V38.9999H247.931V33.3659C247.931 32.8259 247.859 32.3819 247.715 32.0339C247.571 31.6739 247.349 31.4159 247.049 31.2599C246.749 31.0919 246.377 31.0199 245.933 31.0439C245.573 31.0439 245.243 31.1039 244.943 31.2239C244.643 31.3319 244.379 31.4879 244.151 31.6919C243.935 31.8959 243.761 32.1359 243.629 32.4119C243.509 32.6759 243.449 32.9639 243.449 33.2759V38.9999H242.531C242.375 38.9999 242.219 38.9999 242.063 38.9999C241.907 38.9999 241.751 38.9999 241.595 38.9999ZM253.992 36.0479L253.902 34.0319L258.42 29.5499H260.922L253.992 36.0479ZM252.3 38.9999V25.6799H254.154V38.9999H252.3ZM258.672 38.9999L255.108 34.8419L256.422 33.6359L261.048 38.9999H258.672ZM266.729 38.9999L271.607 26.3999H273.587L278.429 38.9999H276.359L273.479 31.4039C273.443 31.3199 273.371 31.1159 273.263 30.7919C273.167 30.4679 273.053 30.1079 272.921 29.7119C272.789 29.3159 272.669 28.9559 272.561 28.6319C272.453 28.2959 272.381 28.0799 272.345 27.9839L272.759 27.9659C272.687 28.1699 272.597 28.4279 272.489 28.7399C272.393 29.0519 272.285 29.3819 272.165 29.7299C272.057 30.0779 271.949 30.4079 271.841 30.7199C271.733 31.0199 271.643 31.2719 271.571 31.4759L268.709 38.9999H266.729ZM268.889 35.8679L269.609 33.9959H275.333L276.161 35.8679H268.889ZM283.841 39.1799C282.965 39.1799 282.179 38.9639 281.483 38.5319C280.799 38.0999 280.253 37.5119 279.845 36.7679C279.449 36.0239 279.251 35.1899 279.251 34.2659C279.251 33.3419 279.449 32.5079 279.845 31.7639C280.253 31.0199 280.799 30.4319 281.483 29.9999C282.179 29.5679 282.965 29.3519 283.841 29.3519C284.681 29.3519 285.443 29.5259 286.127 29.8739C286.823 30.2099 287.351 30.6719 287.711 31.2599L286.685 32.5199C286.493 32.2439 286.247 31.9919 285.947 31.7639C285.647 31.5359 285.329 31.3559 284.993 31.2239C284.657 31.0919 284.333 31.0259 284.021 31.0259C283.445 31.0259 282.929 31.1699 282.473 31.4579C282.029 31.7339 281.675 32.1179 281.411 32.6099C281.147 33.1019 281.015 33.6539 281.015 34.2659C281.015 34.8779 281.153 35.4299 281.429 35.9219C281.705 36.4019 282.071 36.7859 282.527 37.0739C282.983 37.3619 283.487 37.5059 284.039 37.5059C284.363 37.5059 284.675 37.4519 284.975 37.3439C285.287 37.2359 285.587 37.0739 285.875 36.8579C286.163 36.6419 286.433 36.3779 286.685 36.0659L287.711 37.3259C287.327 37.8659 286.775 38.3099 286.055 38.6579C285.347 39.0059 284.609 39.1799 283.841 39.1799ZM293.474 39.1799C292.598 39.1799 291.812 38.9639 291.116 38.5319C290.432 38.0999 289.886 37.5119 289.478 36.7679C289.082 36.0239 288.884 35.1899 288.884 34.2659C288.884 33.3419 289.082 32.5079 289.478 31.7639C289.886 31.0199 290.432 30.4319 291.116 29.9999C291.812 29.5679 292.598 29.3519 293.474 29.3519C294.314 29.3519 295.076 29.5259 295.76 29.8739C296.456 30.2099 296.984 30.6719 297.344 31.2599L296.318 32.5199C296.126 32.2439 295.88 31.9919 295.58 31.7639C295.28 31.5359 294.962 31.3559 294.626 31.2239C294.29 31.0919 293.966 31.0259 293.654 31.0259C293.078 31.0259 292.562 31.1699 292.106 31.4579C291.662 31.7339 291.308 32.1179 291.044 32.6099C290.78 33.1019 290.648 33.6539 290.648 34.2659C290.648 34.8779 290.786 35.4299 291.062 35.9219C291.338 36.4019 291.704 36.7859 292.16 37.0739C292.616 37.3619 293.12 37.5059 293.672 37.5059C293.996 37.5059 294.308 37.4519 294.608 37.3439C294.92 37.2359 295.22 37.0739 295.508 36.8579C295.796 36.6419 296.066 36.3779 296.318 36.0659L297.344 37.3259C296.96 37.8659 296.408 38.3099 295.688 38.6579C294.98 39.0059 294.242 39.1799 293.474 39.1799ZM303.341 39.1799C302.417 39.1799 301.589 38.9699 300.857 38.5499C300.137 38.1179 299.567 37.5359 299.147 36.8039C298.727 36.0599 298.517 35.2139 298.517 34.2659C298.517 33.3179 298.727 32.4779 299.147 31.7459C299.567 31.0019 300.137 30.4199 300.857 29.9999C301.589 29.5679 302.417 29.3519 303.341 29.3519C304.253 29.3519 305.069 29.5679 305.789 29.9999C306.521 30.4199 307.097 31.0019 307.517 31.7459C307.937 32.4779 308.147 33.3179 308.147 34.2659C308.147 35.2139 307.937 36.0599 307.517 36.8039C307.097 37.5359 306.521 38.1179 305.789 38.5499C305.069 38.9699 304.253 39.1799 303.341 39.1799ZM303.341 37.4879C303.905 37.4879 304.409 37.3499 304.853 37.0739C305.297 36.7859 305.645 36.4019 305.897 35.9219C306.149 35.4299 306.269 34.8779 306.257 34.2659C306.269 33.6419 306.149 33.0899 305.897 32.6099C305.645 32.1179 305.297 31.7339 304.853 31.4579C304.409 31.1819 303.905 31.0439 303.341 31.0439C302.777 31.0439 302.267 31.1879 301.811 31.4759C301.367 31.7519 301.019 32.1359 300.767 32.6279C300.515 33.1079 300.395 33.6539 300.407 34.2659C300.395 34.8779 300.515 35.4299 300.767 35.9219C301.019 36.4019 301.367 36.7859 301.811 37.0739C302.267 37.3499 302.777 37.4879 303.341 37.4879ZM313.479 39.1799C312.807 39.1799 312.219 39.0239 311.715 38.7119C311.223 38.3999 310.839 37.9619 310.563 37.3979C310.299 36.8339 310.167 36.1619 310.167 35.3819V29.5499H312.021V34.8779C312.021 35.4299 312.105 35.9099 312.273 36.3179C312.453 36.7139 312.705 37.0199 313.029 37.2359C313.365 37.4519 313.767 37.5599 314.235 37.5599C314.583 37.5599 314.901 37.5059 315.189 37.3979C315.477 37.2779 315.723 37.1159 315.927 36.9119C316.143 36.7079 316.311 36.4619 316.431 36.1739C316.551 35.8859 316.611 35.5739 316.611 35.2379V29.5499H318.465V38.9999H316.611V37.0199L316.935 36.8039C316.791 37.2479 316.545 37.6499 316.197 38.0099C315.861 38.3699 315.459 38.6579 314.991 38.8739C314.523 39.0779 314.019 39.1799 313.479 39.1799ZM321.066 38.9999V29.5499H322.92V31.4939L322.596 31.7099C322.716 31.2899 322.95 30.9059 323.298 30.5579C323.646 30.1979 324.06 29.9099 324.54 29.6939C325.02 29.4659 325.512 29.3519 326.016 29.3519C326.736 29.3519 327.336 29.4959 327.816 29.7839C328.296 30.0599 328.656 30.4859 328.896 31.0619C329.136 31.6379 329.256 32.3639 329.256 33.2399V38.9999H327.402V33.3659C327.402 32.8259 327.33 32.3819 327.186 32.0339C327.042 31.6739 326.82 31.4159 326.52 31.2599C326.22 31.0919 325.848 31.0199 325.404 31.0439C325.044 31.0439 324.714 31.1039 324.414 31.2239C324.114 31.3319 323.85 31.4879 323.622 31.6919C323.406 31.8959 323.232 32.1359 323.1 32.4119C322.98 32.6759 322.92 32.9639 322.92 33.2759V38.9999H322.002C321.846 38.9999 321.69 38.9999 321.534 38.9999C321.378 38.9999 321.222 38.9999 321.066 38.9999ZM332.941 38.9999V27.1379H334.795V38.9999H332.941ZM330.979 31.3499V29.5499H336.991V31.3499H330.979Z" fill="white"/>
<path d="M137.782 62.14C137.063 62.14 136.396 62.014 135.78 61.762C135.164 61.51 134.623 61.16 134.156 60.712C133.689 60.264 133.325 59.7367 133.064 59.13C132.812 58.514 132.686 57.8467 132.686 57.128C132.686 56.4093 132.812 55.7467 133.064 55.14C133.325 54.524 133.68 53.992 134.128 53.544C134.585 53.096 135.117 52.7507 135.724 52.508C136.34 52.256 136.998 52.13 137.698 52.13C138.193 52.13 138.678 52.2 139.154 52.34C139.639 52.48 140.078 52.676 140.47 52.928C140.862 53.18 141.179 53.4647 141.422 53.782L140.694 54.524C140.433 54.2533 140.139 54.02 139.812 53.824C139.485 53.628 139.14 53.474 138.776 53.362C138.421 53.25 138.067 53.194 137.712 53.194C137.161 53.194 136.648 53.292 136.172 53.488C135.705 53.684 135.295 53.9593 134.94 54.314C134.585 54.6593 134.31 55.0747 134.114 55.56C133.918 56.036 133.82 56.5587 133.82 57.128C133.82 57.6787 133.918 58.1967 134.114 58.682C134.319 59.158 134.604 59.578 134.968 59.942C135.341 60.2967 135.771 60.572 136.256 60.768C136.741 60.964 137.264 61.062 137.824 61.062C138.263 61.062 138.673 60.9967 139.056 60.866C139.448 60.7353 139.789 60.5533 140.078 60.32C140.367 60.0773 140.591 59.7973 140.75 59.48C140.909 59.1627 140.988 58.822 140.988 58.458V57.968L141.212 58.248H137.768V57.17H142.08C142.089 57.2447 142.099 57.3333 142.108 57.436C142.117 57.5293 142.122 57.6273 142.122 57.73C142.131 57.8233 142.136 57.912 142.136 57.996C142.136 58.6027 142.024 59.1627 141.8 59.676C141.576 60.18 141.263 60.6187 140.862 60.992C140.47 61.356 140.013 61.6407 139.49 61.846C138.967 62.042 138.398 62.14 137.782 62.14ZM146.933 62.14C146.205 62.14 145.557 61.9813 144.987 61.664C144.427 61.3467 143.989 60.9033 143.671 60.334C143.354 59.7647 143.195 59.1113 143.195 58.374C143.195 57.8047 143.284 57.2913 143.461 56.834C143.639 56.3673 143.886 55.9613 144.203 55.616C144.53 55.2707 144.917 55.0047 145.365 54.818C145.813 54.622 146.299 54.524 146.821 54.524C147.316 54.524 147.764 54.6127 148.165 54.79C148.576 54.9673 148.926 55.2147 149.215 55.532C149.514 55.84 149.738 56.2087 149.887 56.638C150.037 57.0673 150.102 57.5387 150.083 58.052L150.069 58.542H143.979L143.825 57.66H149.271L149.019 57.898V57.562C149.001 57.226 148.903 56.904 148.725 56.596C148.548 56.2787 148.296 56.022 147.969 55.826C147.652 55.63 147.269 55.532 146.821 55.532C146.299 55.532 145.846 55.6393 145.463 55.854C145.081 56.0593 144.787 56.3673 144.581 56.778C144.376 57.1887 144.273 57.6973 144.273 58.304C144.273 58.8827 144.385 59.3867 144.609 59.816C144.833 60.236 145.151 60.5627 145.561 60.796C145.981 61.0293 146.485 61.146 147.073 61.146C147.419 61.146 147.759 61.09 148.095 60.978C148.441 60.8567 148.819 60.6233 149.229 60.278L149.775 61.034C149.561 61.2487 149.304 61.44 149.005 61.608C148.707 61.7667 148.38 61.8973 148.025 62C147.671 62.0933 147.307 62.14 146.933 62.14ZM152.583 62V52.774H153.633V62H152.583ZM150.931 55.7V54.692H155.481V55.7H150.931ZM161.114 62V52.2H164.992C165.505 52.2 165.967 52.326 166.378 52.578C166.789 52.83 167.115 53.18 167.358 53.628C167.601 54.0667 167.722 54.5613 167.722 55.112C167.722 55.6907 167.601 56.2087 167.358 56.666C167.115 57.114 166.789 57.4733 166.378 57.744C165.967 58.0053 165.505 58.136 164.992 58.136H162.206V62H161.114ZM162.206 57.072H165.048C165.337 57.072 165.594 56.988 165.818 56.82C166.051 56.6427 166.238 56.4093 166.378 56.12C166.518 55.8213 166.588 55.4807 166.588 55.098C166.588 54.7527 166.518 54.4447 166.378 54.174C166.238 53.894 166.051 53.6747 165.818 53.516C165.594 53.348 165.337 53.264 165.048 53.264H162.206V57.072ZM172.122 62.14C171.487 62.14 170.913 61.9767 170.4 61.65C169.887 61.314 169.481 60.8613 169.182 60.292C168.883 59.7133 168.734 59.06 168.734 58.332C168.734 57.5947 168.888 56.9413 169.196 56.372C169.504 55.8027 169.915 55.3547 170.428 55.028C170.951 54.7013 171.534 54.538 172.178 54.538C172.561 54.538 172.915 54.594 173.242 54.706C173.569 54.818 173.858 54.9767 174.11 55.182C174.371 55.378 174.586 55.6113 174.754 55.882C174.931 56.1433 175.053 56.428 175.118 56.736L174.81 56.582L174.852 54.692H175.902V62H174.838V60.208L175.118 60.026C175.053 60.306 174.927 60.5767 174.74 60.838C174.553 61.09 174.325 61.314 174.054 61.51C173.793 61.706 173.494 61.86 173.158 61.972C172.831 62.084 172.486 62.14 172.122 62.14ZM172.36 61.132C172.845 61.132 173.279 61.0153 173.662 60.782C174.045 60.5393 174.343 60.208 174.558 59.788C174.782 59.3587 174.894 58.8733 174.894 58.332C174.894 57.7907 174.782 57.31 174.558 56.89C174.343 56.47 174.045 56.1387 173.662 55.896C173.279 55.6533 172.845 55.532 172.36 55.532C171.865 55.532 171.427 55.6533 171.044 55.896C170.671 56.1387 170.372 56.47 170.148 56.89C169.933 57.31 169.826 57.7907 169.826 58.332C169.826 58.864 169.933 59.3447 170.148 59.774C170.363 60.194 170.661 60.5253 171.044 60.768C171.427 61.0107 171.865 61.132 172.36 61.132ZM179.016 65.22L180.43 61.776L180.528 62.77L176.86 54.692H178.05L180.556 60.292C180.63 60.4413 180.705 60.6187 180.78 60.824C180.854 61.02 180.924 61.216 180.99 61.412L180.598 61.37C180.663 61.2113 180.724 61.048 180.78 60.88C180.845 60.712 180.906 60.5487 180.962 60.39L183.16 54.692H184.364L181.41 62L180.15 65.22H179.016ZM185.453 62V54.692H186.503L186.531 56.358L186.321 56.428C186.396 56.148 186.517 55.896 186.685 55.672C186.863 55.4387 187.073 55.238 187.315 55.07C187.558 54.902 187.824 54.776 188.113 54.692C188.403 54.5987 188.706 54.552 189.023 54.552C189.406 54.552 189.747 54.6173 190.045 54.748C190.353 54.8693 190.61 55.084 190.815 55.392C191.03 55.6907 191.193 56.0873 191.305 56.582L191.053 56.456L191.151 56.218C191.245 56.0033 191.38 55.798 191.557 55.602C191.744 55.3967 191.954 55.2147 192.187 55.056C192.43 54.8973 192.691 54.776 192.971 54.692C193.261 54.5987 193.555 54.552 193.853 54.552C194.367 54.552 194.801 54.664 195.155 54.888C195.51 55.1027 195.776 55.434 195.953 55.882C196.14 56.33 196.233 56.8993 196.233 57.59V62H195.155V57.646C195.155 57.1607 195.095 56.764 194.973 56.456C194.852 56.148 194.67 55.9193 194.427 55.77C194.194 55.6113 193.895 55.532 193.531 55.532C193.214 55.532 192.92 55.588 192.649 55.7C192.388 55.8027 192.159 55.952 191.963 56.148C191.777 56.3347 191.627 56.5493 191.515 56.792C191.413 57.0347 191.361 57.296 191.361 57.576V62H190.297V57.632C190.297 57.1653 190.232 56.778 190.101 56.47C189.98 56.162 189.798 55.9287 189.555 55.77C189.313 55.6113 189.014 55.532 188.659 55.532C188.351 55.532 188.067 55.588 187.805 55.7C187.544 55.8027 187.315 55.9473 187.119 56.134C186.933 56.3207 186.783 56.5353 186.671 56.778C186.569 57.0207 186.517 57.282 186.517 57.562V62H185.453ZM201.443 62.14C200.715 62.14 200.067 61.9813 199.497 61.664C198.937 61.3467 198.499 60.9033 198.181 60.334C197.864 59.7647 197.705 59.1113 197.705 58.374C197.705 57.8047 197.794 57.2913 197.971 56.834C198.149 56.3673 198.396 55.9613 198.713 55.616C199.04 55.2707 199.427 55.0047 199.875 54.818C200.323 54.622 200.809 54.524 201.331 54.524C201.826 54.524 202.274 54.6127 202.675 54.79C203.086 54.9673 203.436 55.2147 203.725 55.532C204.024 55.84 204.248 56.2087 204.397 56.638C204.547 57.0673 204.612 57.5387 204.593 58.052L204.579 58.542H198.489L198.335 57.66H203.781L203.529 57.898V57.562C203.511 57.226 203.413 56.904 203.235 56.596C203.058 56.2787 202.806 56.022 202.479 55.826C202.162 55.63 201.779 55.532 201.331 55.532C200.809 55.532 200.356 55.6393 199.973 55.854C199.591 56.0593 199.297 56.3673 199.091 56.778C198.886 57.1887 198.783 57.6973 198.783 58.304C198.783 58.8827 198.895 59.3867 199.119 59.816C199.343 60.236 199.661 60.5627 200.071 60.796C200.491 61.0293 200.995 61.146 201.583 61.146C201.929 61.146 202.269 61.09 202.605 60.978C202.951 60.8567 203.329 60.6233 203.739 60.278L204.285 61.034C204.071 61.2487 203.814 61.44 203.515 61.608C203.217 61.7667 202.89 61.8973 202.535 62C202.181 62.0933 201.817 62.14 201.443 62.14ZM206.085 62V54.692H207.12L207.163 56.218L206.995 56.288C207.088 55.9707 207.27 55.6813 207.541 55.42C207.811 55.1587 208.133 54.9487 208.507 54.79C208.889 54.622 209.281 54.538 209.683 54.538C210.224 54.538 210.677 54.6453 211.041 54.86C211.405 55.0747 211.68 55.406 211.867 55.854C212.053 56.302 212.147 56.8713 212.147 57.562V62H211.083V57.618C211.083 57.1327 211.017 56.736 210.887 56.428C210.765 56.1107 210.574 55.8773 210.313 55.728C210.051 55.5787 209.729 55.5087 209.347 55.518C209.029 55.518 208.735 55.574 208.465 55.686C208.194 55.7887 207.961 55.9333 207.765 56.12C207.569 56.3067 207.415 56.5213 207.303 56.764C207.191 57.0067 207.135 57.268 207.135 57.548V62H206.617C206.551 62 206.477 62 206.393 62C206.309 62 206.206 62 206.085 62ZM215.159 62V52.774H216.209V62H215.159ZM213.507 55.7V54.692H218.057V55.7H213.507ZM222.014 62.14C221.388 62.14 220.828 62.0233 220.334 61.79C219.839 61.5567 219.447 61.2487 219.158 60.866L219.9 60.222C220.17 60.5487 220.488 60.796 220.852 60.964C221.225 61.132 221.64 61.216 222.098 61.216C222.331 61.216 222.541 61.1927 222.728 61.146C222.914 61.09 223.078 61.0107 223.218 60.908C223.358 60.8053 223.465 60.684 223.54 60.544C223.614 60.404 223.652 60.25 223.652 60.082C223.652 59.774 223.516 59.5173 223.246 59.312C223.124 59.228 222.952 59.144 222.728 59.06C222.504 58.9667 222.233 58.878 221.916 58.794C221.393 58.6447 220.959 58.4953 220.614 58.346C220.268 58.1873 219.998 58.0053 219.802 57.8C219.662 57.632 219.554 57.45 219.48 57.254C219.414 57.058 219.382 56.8433 219.382 56.61C219.382 56.3113 219.442 56.036 219.564 55.784C219.694 55.532 219.872 55.3127 220.096 55.126C220.329 54.93 220.6 54.7853 220.908 54.692C221.225 54.5893 221.566 54.538 221.93 54.538C222.275 54.538 222.616 54.5847 222.952 54.678C223.288 54.7713 223.6 54.9067 223.89 55.084C224.179 55.2613 224.426 55.4713 224.632 55.714L223.988 56.414C223.81 56.2273 223.614 56.0593 223.4 55.91C223.185 55.7607 222.956 55.644 222.714 55.56C222.48 55.476 222.238 55.434 221.986 55.434C221.762 55.434 221.552 55.462 221.356 55.518C221.169 55.574 221.006 55.6533 220.866 55.756C220.735 55.8493 220.632 55.966 220.558 56.106C220.492 56.246 220.46 56.4 220.46 56.568C220.46 56.708 220.488 56.834 220.544 56.946C220.6 57.058 220.679 57.156 220.782 57.24C220.912 57.3427 221.094 57.4407 221.328 57.534C221.57 57.618 221.869 57.7067 222.224 57.8C222.634 57.912 222.98 58.0287 223.26 58.15C223.549 58.262 223.787 58.3973 223.974 58.556C224.226 58.7427 224.403 58.9573 224.506 59.2C224.618 59.4427 224.674 59.718 224.674 60.026C224.674 60.4367 224.557 60.8007 224.324 61.118C224.1 61.4353 223.787 61.6873 223.386 61.874C222.984 62.0513 222.527 62.14 222.014 62.14ZM232.511 62L229.431 54.692H230.593L233.029 60.67L232.749 60.824L235.423 54.692H236.543L233.267 62H232.511ZM238.056 62V54.692H239.106V62H238.056ZM238.574 53.11C238.313 53.11 238.112 53.0447 237.972 52.914C237.841 52.774 237.776 52.5873 237.776 52.354C237.776 52.1207 237.846 51.934 237.986 51.794C238.126 51.654 238.322 51.584 238.574 51.584C238.826 51.584 239.022 51.654 239.162 51.794C239.302 51.9247 239.372 52.1113 239.372 52.354C239.372 52.578 239.302 52.76 239.162 52.9C239.022 53.04 238.826 53.11 238.574 53.11ZM244.255 62.14C243.62 62.14 243.046 61.9767 242.533 61.65C242.02 61.314 241.614 60.8613 241.315 60.292C241.016 59.7133 240.867 59.06 240.867 58.332C240.867 57.5947 241.021 56.9413 241.329 56.372C241.637 55.8027 242.048 55.3547 242.561 55.028C243.084 54.7013 243.667 54.538 244.311 54.538C244.694 54.538 245.048 54.594 245.375 54.706C245.702 54.818 245.991 54.9767 246.243 55.182C246.504 55.378 246.719 55.6113 246.887 55.882C247.064 56.1433 247.186 56.428 247.251 56.736L246.943 56.582L246.985 54.692H248.035V62H246.971V60.208L247.251 60.026C247.186 60.306 247.06 60.5767 246.873 60.838C246.686 61.09 246.458 61.314 246.187 61.51C245.926 61.706 245.627 61.86 245.291 61.972C244.964 62.084 244.619 62.14 244.255 62.14ZM244.493 61.132C244.978 61.132 245.412 61.0153 245.795 60.782C246.178 60.5393 246.476 60.208 246.691 59.788C246.915 59.3587 247.027 58.8733 247.027 58.332C247.027 57.7907 246.915 57.31 246.691 56.89C246.476 56.47 246.178 56.1387 245.795 55.896C245.412 55.6533 244.978 55.532 244.493 55.532C243.998 55.532 243.56 55.6533 243.177 55.896C242.804 56.1387 242.505 56.47 242.281 56.89C242.066 57.31 241.959 57.7907 241.959 58.332C241.959 58.864 242.066 59.3447 242.281 59.774C242.496 60.194 242.794 60.5253 243.177 60.768C243.56 61.0107 243.998 61.132 244.493 61.132ZM261.9 63.442L258.316 58.724L259.198 58.136L262.768 62.812L261.9 63.442ZM258.47 62.14C257.78 62.14 257.14 62.0187 256.552 61.776C255.974 61.524 255.465 61.174 255.026 60.726C254.597 60.278 254.261 59.7507 254.018 59.144C253.785 58.528 253.668 57.856 253.668 57.128C253.668 56.4 253.785 55.7327 254.018 55.126C254.261 54.51 254.597 53.978 255.026 53.53C255.465 53.0727 255.974 52.7227 256.552 52.48C257.14 52.228 257.78 52.102 258.47 52.102C259.17 52.102 259.81 52.228 260.388 52.48C260.976 52.7227 261.485 53.0727 261.914 53.53C262.353 53.978 262.689 54.51 262.922 55.126C263.165 55.7327 263.286 56.4 263.286 57.128C263.286 57.8467 263.165 58.514 262.922 59.13C262.689 59.7367 262.353 60.2687 261.914 60.726C261.485 61.174 260.976 61.524 260.388 61.776C259.81 62.0187 259.17 62.14 258.47 62.14ZM258.47 61.062C259.002 61.062 259.492 60.9687 259.94 60.782C260.398 60.586 260.79 60.3107 261.116 59.956C261.443 59.6013 261.695 59.186 261.872 58.71C262.059 58.2247 262.152 57.6973 262.152 57.128C262.152 56.5493 262.059 56.022 261.872 55.546C261.695 55.0607 261.443 54.6407 261.116 54.286C260.79 53.9313 260.398 53.656 259.94 53.46C259.492 53.264 259.002 53.166 258.47 53.166C257.938 53.166 257.444 53.264 256.986 53.46C256.538 53.656 256.151 53.9313 255.824 54.286C255.498 54.6407 255.246 55.0607 255.068 55.546C254.891 56.022 254.802 56.5493 254.802 57.128C254.802 57.6973 254.891 58.2247 255.068 58.71C255.246 59.186 255.498 59.6013 255.824 59.956C256.151 60.3107 256.538 60.586 256.986 60.782C257.444 60.9687 257.938 61.062 258.47 61.062ZM265.417 62V52.2H269.253C269.822 52.2 270.335 52.3353 270.793 52.606C271.259 52.8673 271.628 53.2267 271.899 53.684C272.169 54.1413 272.305 54.6593 272.305 55.238C272.305 55.7793 272.174 56.2693 271.913 56.708C271.651 57.1467 271.297 57.4967 270.849 57.758C270.401 58.01 269.897 58.136 269.337 58.136H266.509V62H265.417ZM271.395 62L268.931 57.688L269.981 57.324L272.697 62H271.395ZM266.509 57.072H269.435C269.78 57.072 270.083 56.9927 270.345 56.834C270.606 56.6753 270.811 56.4607 270.961 56.19C271.11 55.91 271.185 55.5927 271.185 55.238C271.185 54.8553 271.096 54.5147 270.919 54.216C270.741 53.9173 270.494 53.684 270.177 53.516C269.869 53.348 269.514 53.264 269.113 53.264H266.509V57.072ZM281.397 62.14C280.669 62.14 280.02 61.9767 279.451 61.65C278.891 61.3233 278.447 60.8707 278.121 60.292C277.803 59.7133 277.645 59.0553 277.645 58.318C277.645 57.59 277.803 56.9413 278.121 56.372C278.447 55.8027 278.891 55.3547 279.451 55.028C280.02 54.7013 280.669 54.538 281.397 54.538C282.115 54.538 282.755 54.7013 283.315 55.028C283.884 55.3547 284.327 55.8027 284.645 56.372C284.971 56.9413 285.135 57.59 285.135 58.318C285.135 59.0553 284.971 59.7133 284.645 60.292C284.327 60.8707 283.884 61.3233 283.315 61.65C282.755 61.9767 282.115 62.14 281.397 62.14ZM281.397 61.146C281.91 61.146 282.367 61.0247 282.769 60.782C283.17 60.53 283.483 60.194 283.707 59.774C283.931 59.3447 284.043 58.8593 284.043 58.318C284.043 57.7767 283.931 57.296 283.707 56.876C283.483 56.456 283.17 56.1293 282.769 55.896C282.367 55.6533 281.91 55.532 281.397 55.532C280.883 55.532 280.421 55.6533 280.011 55.896C279.609 56.1293 279.292 56.4607 279.059 56.89C278.835 57.31 278.727 57.786 278.737 58.318C278.727 58.8593 278.835 59.3447 279.059 59.774C279.292 60.194 279.609 60.53 280.011 60.782C280.421 61.0247 280.883 61.146 281.397 61.146ZM286.667 62V54.692H287.717L287.745 56.638L287.633 56.372C287.735 56.0453 287.899 55.742 288.123 55.462C288.356 55.182 288.631 54.958 288.949 54.79C289.266 54.622 289.616 54.538 289.999 54.538C290.157 54.538 290.307 54.552 290.447 54.58C290.587 54.5987 290.703 54.6267 290.797 54.664L290.503 55.84C290.381 55.784 290.255 55.7467 290.125 55.728C290.003 55.7 289.887 55.686 289.775 55.686C289.457 55.686 289.173 55.742 288.921 55.854C288.669 55.966 288.454 56.1247 288.277 56.33C288.099 56.526 287.964 56.7547 287.871 57.016C287.777 57.2773 287.731 57.5573 287.731 57.856V62H286.667ZM133.442 76V66.2H137.32C137.833 66.2 138.295 66.326 138.706 66.578C139.117 66.83 139.443 67.18 139.686 67.628C139.929 68.0667 140.05 68.5613 140.05 69.112C140.05 69.6907 139.929 70.2087 139.686 70.666C139.443 71.114 139.117 71.4733 138.706 71.744C138.295 72.0053 137.833 72.136 137.32 72.136H134.534V76H133.442ZM134.534 71.072H137.376C137.665 71.072 137.922 70.988 138.146 70.82C138.379 70.6427 138.566 70.4093 138.706 70.12C138.846 69.8213 138.916 69.4807 138.916 69.098C138.916 68.7527 138.846 68.4447 138.706 68.174C138.566 67.894 138.379 67.6747 138.146 67.516C137.922 67.348 137.665 67.264 137.376 67.264H134.534V71.072ZM144.45 76.14C143.816 76.14 143.242 75.9767 142.728 75.65C142.215 75.314 141.809 74.8613 141.51 74.292C141.212 73.7133 141.062 73.06 141.062 72.332C141.062 71.5947 141.216 70.9413 141.524 70.372C141.832 69.8027 142.243 69.3547 142.756 69.028C143.279 68.7013 143.862 68.538 144.506 68.538C144.889 68.538 145.244 68.594 145.57 68.706C145.897 68.818 146.186 68.9767 146.438 69.182C146.7 69.378 146.914 69.6113 147.082 69.882C147.26 70.1433 147.381 70.428 147.446 70.736L147.138 70.582L147.18 68.692H148.23V76H147.166V74.208L147.446 74.026C147.381 74.306 147.255 74.5767 147.068 74.838C146.882 75.09 146.653 75.314 146.382 75.51C146.121 75.706 145.822 75.86 145.486 75.972C145.16 76.084 144.814 76.14 144.45 76.14ZM144.688 75.132C145.174 75.132 145.608 75.0153 145.99 74.782C146.373 74.5393 146.672 74.208 146.886 73.788C147.11 73.3587 147.222 72.8733 147.222 72.332C147.222 71.7907 147.11 71.31 146.886 70.89C146.672 70.47 146.373 70.1387 145.99 69.896C145.608 69.6533 145.174 69.532 144.688 69.532C144.194 69.532 143.755 69.6533 143.372 69.896C142.999 70.1387 142.7 70.47 142.476 70.89C142.262 71.31 142.154 71.7907 142.154 72.332C142.154 72.864 142.262 73.3447 142.476 73.774C142.691 74.194 142.99 74.5253 143.372 74.768C143.755 75.0107 144.194 75.132 144.688 75.132ZM151.344 79.22L152.758 75.776L152.856 76.77L149.188 68.692H150.378L152.884 74.292C152.959 74.4413 153.033 74.6187 153.108 74.824C153.183 75.02 153.253 75.216 153.318 75.412L152.926 75.37C152.991 75.2113 153.052 75.048 153.108 74.88C153.173 74.712 153.234 74.5487 153.29 74.39L155.488 68.692H156.692L153.738 76L152.478 79.22H151.344ZM157.781 76V68.692H158.831L158.859 70.358L158.649 70.428C158.724 70.148 158.845 69.896 159.013 69.672C159.191 69.4387 159.401 69.238 159.643 69.07C159.886 68.902 160.152 68.776 160.441 68.692C160.731 68.5987 161.034 68.552 161.351 68.552C161.734 68.552 162.075 68.6173 162.373 68.748C162.681 68.8693 162.938 69.084 163.143 69.392C163.358 69.6907 163.521 70.0873 163.633 70.582L163.381 70.456L163.479 70.218C163.573 70.0033 163.708 69.798 163.885 69.602C164.072 69.3967 164.282 69.2147 164.515 69.056C164.758 68.8973 165.019 68.776 165.299 68.692C165.589 68.5987 165.883 68.552 166.181 68.552C166.695 68.552 167.129 68.664 167.483 68.888C167.838 69.1027 168.104 69.434 168.281 69.882C168.468 70.33 168.561 70.8993 168.561 71.59V76H167.483V71.646C167.483 71.1607 167.423 70.764 167.301 70.456C167.18 70.148 166.998 69.9193 166.755 69.77C166.522 69.6113 166.223 69.532 165.859 69.532C165.542 69.532 165.248 69.588 164.977 69.7C164.716 69.8027 164.487 69.952 164.291 70.148C164.105 70.3347 163.955 70.5493 163.843 70.792C163.741 71.0347 163.689 71.296 163.689 71.576V76H162.625V71.632C162.625 71.1653 162.56 70.778 162.429 70.47C162.308 70.162 162.126 69.9287 161.883 69.77C161.641 69.6113 161.342 69.532 160.987 69.532C160.679 69.532 160.395 69.588 160.133 69.7C159.872 69.8027 159.643 69.9473 159.447 70.134C159.261 70.3207 159.111 70.5353 158.999 70.778C158.897 71.0207 158.845 71.282 158.845 71.562V76H157.781ZM173.771 76.14C173.043 76.14 172.395 75.9813 171.825 75.664C171.265 75.3467 170.827 74.9033 170.509 74.334C170.192 73.7647 170.033 73.1113 170.033 72.374C170.033 71.8047 170.122 71.2913 170.299 70.834C170.477 70.3673 170.724 69.9613 171.041 69.616C171.368 69.2707 171.755 69.0047 172.203 68.818C172.651 68.622 173.137 68.524 173.659 68.524C174.154 68.524 174.602 68.6127 175.003 68.79C175.414 68.9673 175.764 69.2147 176.053 69.532C176.352 69.84 176.576 70.2087 176.725 70.638C176.875 71.0673 176.94 71.5387 176.921 72.052L176.907 72.542H170.817L170.663 71.66H176.109L175.857 71.898V71.562C175.839 71.226 175.741 70.904 175.563 70.596C175.386 70.2787 175.134 70.022 174.807 69.826C174.49 69.63 174.107 69.532 173.659 69.532C173.137 69.532 172.684 69.6393 172.301 69.854C171.919 70.0593 171.625 70.3673 171.419 70.778C171.214 71.1887 171.111 71.6973 171.111 72.304C171.111 72.8827 171.223 73.3867 171.447 73.816C171.671 74.236 171.989 74.5627 172.399 74.796C172.819 75.0293 173.323 75.146 173.911 75.146C174.257 75.146 174.597 75.09 174.933 74.978C175.279 74.8567 175.657 74.6233 176.067 74.278L176.613 75.034C176.399 75.2487 176.142 75.44 175.843 75.608C175.545 75.7667 175.218 75.8973 174.863 76C174.509 76.0933 174.145 76.14 173.771 76.14ZM178.413 76V68.692H179.449L179.491 70.218L179.323 70.288C179.416 69.9707 179.598 69.6813 179.869 69.42C180.139 69.1587 180.461 68.9487 180.835 68.79C181.217 68.622 181.609 68.538 182.011 68.538C182.552 68.538 183.005 68.6453 183.369 68.86C183.733 69.0747 184.008 69.406 184.195 69.854C184.381 70.302 184.475 70.8713 184.475 71.562V76H183.411V71.618C183.411 71.1327 183.345 70.736 183.215 70.428C183.093 70.1107 182.902 69.8773 182.641 69.728C182.379 69.5787 182.057 69.5087 181.675 69.518C181.357 69.518 181.063 69.574 180.793 69.686C180.522 69.7887 180.289 69.9333 180.093 70.12C179.897 70.3067 179.743 70.5213 179.631 70.764C179.519 71.0067 179.463 71.268 179.463 71.548V76H178.945C178.879 76 178.805 76 178.721 76C178.637 76 178.534 76 178.413 76ZM187.487 76V66.774H188.537V76H187.487ZM185.835 69.7V68.692H190.385V69.7H185.835ZM194.342 76.14C193.716 76.14 193.156 76.0233 192.662 75.79C192.167 75.5567 191.775 75.2487 191.486 74.866L192.228 74.222C192.498 74.5487 192.816 74.796 193.18 74.964C193.553 75.132 193.968 75.216 194.426 75.216C194.659 75.216 194.869 75.1927 195.056 75.146C195.242 75.09 195.406 75.0107 195.546 74.908C195.686 74.8053 195.793 74.684 195.868 74.544C195.942 74.404 195.98 74.25 195.98 74.082C195.98 73.774 195.844 73.5173 195.574 73.312C195.452 73.228 195.28 73.144 195.056 73.06C194.832 72.9667 194.561 72.878 194.244 72.794C193.721 72.6447 193.287 72.4953 192.942 72.346C192.596 72.1873 192.326 72.0053 192.13 71.8C191.99 71.632 191.882 71.45 191.808 71.254C191.742 71.058 191.71 70.8433 191.71 70.61C191.71 70.3113 191.77 70.036 191.892 69.784C192.022 69.532 192.2 69.3127 192.424 69.126C192.657 68.93 192.928 68.7853 193.236 68.692C193.553 68.5893 193.894 68.538 194.258 68.538C194.603 68.538 194.944 68.5847 195.28 68.678C195.616 68.7713 195.928 68.9067 196.218 69.084C196.507 69.2613 196.754 69.4713 196.96 69.714L196.316 70.414C196.138 70.2273 195.942 70.0593 195.728 69.91C195.513 69.7607 195.284 69.644 195.042 69.56C194.808 69.476 194.566 69.434 194.314 69.434C194.09 69.434 193.88 69.462 193.684 69.518C193.497 69.574 193.334 69.6533 193.194 69.756C193.063 69.8493 192.96 69.966 192.886 70.106C192.82 70.246 192.788 70.4 192.788 70.568C192.788 70.708 192.816 70.834 192.872 70.946C192.928 71.058 193.007 71.156 193.11 71.24C193.24 71.3427 193.422 71.4407 193.656 71.534C193.898 71.618 194.197 71.7067 194.552 71.8C194.962 71.912 195.308 72.0287 195.588 72.15C195.877 72.262 196.115 72.3973 196.302 72.556C196.554 72.7427 196.731 72.9573 196.834 73.2C196.946 73.4427 197.002 73.718 197.002 74.026C197.002 74.4367 196.885 74.8007 196.652 75.118C196.428 75.4353 196.115 75.6873 195.714 75.874C195.312 76.0513 194.855 76.14 194.342 76.14ZM202.991 76V66.2H204.083V74.936H208.787V76H202.991ZM210.781 76V68.692H211.831V76H210.781ZM211.299 67.11C211.037 67.11 210.837 67.0447 210.697 66.914C210.566 66.774 210.501 66.5873 210.501 66.354C210.501 66.1207 210.571 65.934 210.711 65.794C210.851 65.654 211.047 65.584 211.299 65.584C211.551 65.584 211.747 65.654 211.887 65.794C212.027 65.9247 212.097 66.1113 212.097 66.354C212.097 66.578 212.027 66.76 211.887 66.9C211.747 67.04 211.551 67.11 211.299 67.11ZM214.124 76V68.692H215.16L215.202 70.218L215.034 70.288C215.127 69.9707 215.309 69.6813 215.58 69.42C215.85 69.1587 216.172 68.9487 216.546 68.79C216.928 68.622 217.32 68.538 217.722 68.538C218.263 68.538 218.716 68.6453 219.08 68.86C219.444 69.0747 219.719 69.406 219.906 69.854C220.092 70.302 220.186 70.8713 220.186 71.562V76H219.122V71.618C219.122 71.1327 219.056 70.736 218.926 70.428C218.804 70.1107 218.613 69.8773 218.352 69.728C218.09 69.5787 217.768 69.5087 217.386 69.518C217.068 69.518 216.774 69.574 216.504 69.686C216.233 69.7887 216 69.9333 215.804 70.12C215.608 70.3067 215.454 70.5213 215.342 70.764C215.23 71.0067 215.174 71.268 215.174 71.548V76H214.656C214.59 76 214.516 76 214.432 76C214.348 76 214.245 76 214.124 76ZM223.128 73.648L223.086 72.43L226.908 68.692H228.322L223.128 73.648ZM222.19 76V65.64H223.24V76H222.19ZM227.202 76L224.122 72.43L224.864 71.702L228.574 76H227.202Z" fill="white"/>
<mask id="mask1_65_342" style="mask-type:luminance" maskUnits="userSpaceOnUse" x="361" y="43" width="15" height="16">
<path d="M361 43V59H376V43H361Z" fill="white"/>
</mask>
<g mask="url(#mask1_65_342)">
<path d="M369.888 51.3843L364.935 45.9901C364.714 45.7497 364.716 45.3651 364.939 45.1247L365.825 44.18C366.053 43.9396 366.418 43.9396 366.643 44.1824L372.946 50.9492C373.059 51.0694 373.115 51.2257 373.115 51.3843C373.115 51.543 373.059 51.6992 372.946 51.8194L366.643 58.5863C366.418 58.8291 366.053 58.8291 365.825 58.5887L364.939 57.644C364.716 57.4036 364.714 57.019 364.935 56.7786L369.888 51.3843Z" fill="white"/>
</g>
<path d="M114.105 59.4543C114.528 58.5851 114.904 57.6708 115.228 56.7127C118.943 45.7488 113.325 32.6147 101.494 29.444C100.216 13.3806 88.9275 2.36169 76.1786 0.480753C61.5869 -1.66969 48.22 7.59952 43.7724 22.3323C38.4118 20.4331 33.188 20.6645 28.2649 23.5416C26.0312 24.5745 23.988 26.0984 22.155 28.1035C19.4641 31.047 17.7144 34.7623 17.0018 38.6794C15.9464 38.8459 14.9092 39.0124 13.9314 39.3623C8.23073 41.407 4.63395 45.6147 3.64763 51.9532C3.03382 55.8999 4.27272 59.8367 4.96414 61.427C7.69453 67.7132 14.0259 71.2762 20.4589 70.3336C20.7792 70.287 21.2449 70.4309 21.52 70.6623C21.8601 80.709 26.7381 89.5944 34.0558 94.67C45.7972 102.815 60.904 100.306 70.4342 89.1373C74.5178 93.314 79.3775 95.3431 85.0866 94.6065C90.7633 93.8742 95.1714 90.7416 98.3872 85.6477C99.873 86.0471 101.281 86.6228 102.737 86.7822C108.441 87.4059 113.072 85.1383 116.47 80.0092C117.771 78.0464 119 75.5023 119 71.0433C119.001 66.4489 117.177 62.2623 114.105 59.4543Z" fill="#C7EDE6"/>
<path d="M93.3113 49.8154C93.3113 49.8154 109.808 49.8154 109.908 49.8154C113.718 49.8154 116.805 46.7266 116.805 42.9168C116.805 39.5938 114.455 36.8196 111.325 36.1663C111.362 35.8756 111.386 35.5807 111.386 35.2802C111.386 31.3349 108.187 28.136 104.241 28.136C101.912 28.136 99.8488 29.2564 98.5449 30.9821C98.2119 26.5895 94.2878 23.2015 89.6976 23.7631C86.3407 24.1738 83.5652 26.7687 82.9472 30.0931C82.7496 31.1599 82.7694 32.1942 82.9669 33.165C82.0667 32.1956 80.7854 31.586 79.3588 31.586C76.7484 31.586 74.6163 33.6194 74.4484 36.1875C73.2631 35.925 71.9734 35.942 70.6145 36.4528C68.0182 37.4278 66.1697 39.8717 66.0611 42.643C65.9073 46.5785 69.0525 49.8183 72.9541 49.8183C73.2504 49.8183 74.2918 49.8183 74.5316 49.8183H88.8552" fill="#FDFCEF"/>
<path d="M109.91 50.5208H93.3116C92.9221 50.5208 92.606 50.2047 92.606 49.8153C92.606 49.4258 92.9221 49.1097 93.3116 49.1097H109.91C113.323 49.1097 116.101 46.3314 116.101 42.9166C116.101 40.0014 114.033 37.453 111.183 36.8561C110.823 36.7799 110.58 36.4413 110.627 36.0758C110.659 35.8134 110.682 35.5495 110.682 35.28C110.682 31.7284 107.793 28.8414 104.244 28.8414C102.215 28.8414 100.343 29.7769 99.1096 31.4067C98.9332 31.6409 98.6284 31.7397 98.349 31.6578C98.0668 31.5746 97.8664 31.3276 97.8439 31.0355C97.6971 29.0925 96.7461 27.2666 95.2334 26.0277C93.7066 24.7747 91.765 24.223 89.7867 24.4629C86.7318 24.8368 84.206 27.2045 83.643 30.2228C83.4695 31.164 83.4751 32.1065 83.6628 33.0237C83.7249 33.3342 83.5753 33.6474 83.2931 33.7913C83.0151 33.9381 82.6694 33.8774 82.4535 33.6446C81.6421 32.7726 80.5443 32.2914 79.3633 32.2914C77.1508 32.2914 75.3023 34.0242 75.1569 36.2339C75.1428 36.4399 75.0412 36.6276 74.8761 36.7517C74.7125 36.8759 74.4966 36.9168 74.3018 36.8759C73.1109 36.612 71.9891 36.6896 70.8673 37.1115C68.5137 37.9963 66.867 40.23 66.7725 42.6697C66.7047 44.3728 67.3171 45.9843 68.4954 47.209C69.6736 48.4353 71.2596 49.1111 72.9599 49.1111H88.8611C89.2505 49.1111 89.5666 49.4272 89.5666 49.8167C89.5666 50.2061 89.2505 50.5222 88.8611 50.5222H72.9571C70.8702 50.5222 68.9229 49.6925 67.4752 48.1883C66.0288 46.6855 65.2767 44.7044 65.3586 42.6161C65.4771 39.6162 67.4907 36.8745 70.3692 35.7922C71.4995 35.3675 72.6664 35.2292 73.8517 35.3703C74.3851 32.7994 76.671 30.8803 79.3619 30.8803C80.3284 30.8803 81.2724 31.1343 82.105 31.6C82.1036 31.0567 82.1529 30.512 82.2545 29.966C82.9276 26.3494 85.9529 23.5118 89.6132 23.0631C91.9753 22.7766 94.2979 23.4384 96.1252 24.937C97.5419 26.0983 98.548 27.6899 99.0009 29.4425C100.43 28.1499 102.273 27.4303 104.242 27.4303C108.569 27.4303 112.09 30.9523 112.09 35.28C112.09 35.3971 112.087 35.5142 112.08 35.6299C115.26 36.581 117.51 39.5484 117.51 42.9166C117.511 47.1103 114.101 50.5208 109.91 50.5208Z" fill="#472B29"/>
<path d="M89.3142 34.6212C86.763 34.4533 84.566 36.2157 84.4094 38.5566C84.3896 38.8473 84.4023 39.1337 84.4447 39.4117C83.9522 38.8557 83.2241 38.479 82.3874 38.424C80.8564 38.3238 79.5342 39.3341 79.3423 40.7099C79.0643 40.6337 78.7736 40.5829 78.4731 40.5631C76.2408 40.4164 74.3189 41.9587 74.1807 44.0075" fill="#FDFCEF"/>
<path d="M74.1804 44.3589C74.1719 44.3589 74.1649 44.3589 74.1564 44.3575C73.9617 44.3448 73.815 44.1769 73.8291 43.9821C73.9786 41.7442 76.0543 40.0481 78.4968 40.209C78.6887 40.2217 78.8806 40.2457 79.0725 40.2838C79.4592 38.9179 80.8462 37.9569 82.4111 38.0726C83.0108 38.1107 83.5724 38.2984 84.0522 38.6117C84.0536 38.5848 84.055 38.558 84.0578 38.5312C84.2257 36.0012 86.5892 34.0737 89.3365 34.2684C89.5313 34.2811 89.678 34.449 89.6639 34.6438C89.6526 34.8371 89.5186 35.0008 89.2886 34.9711C86.9265 34.8145 84.903 36.4344 84.7591 38.5792C84.7407 38.8374 84.752 39.0985 84.7915 39.3581C84.8155 39.5119 84.7351 39.6657 84.5926 39.732C84.4487 39.7955 84.2821 39.7617 84.1777 39.646C83.7234 39.1323 83.0785 38.8233 82.3617 38.7753C81.0353 38.7118 79.8557 39.5585 79.6892 40.7565C79.6736 40.8566 79.6172 40.9469 79.534 41.0034C79.4507 41.0598 79.3435 41.0754 79.2475 41.0485C78.9822 40.9766 78.7141 40.9314 78.4474 40.9117C76.376 40.7847 74.6545 42.1774 74.5304 44.0287C74.5191 44.2164 74.3653 44.3589 74.1804 44.3589Z" fill="#472B29"/>
<path d="M112.702 36.9751C110.305 35.8448 107.532 36.6449 106.509 38.7629C106.382 39.0253 106.288 39.2976 106.226 39.5728" fill="#FDFCEF"/>
<path d="M106.225 39.9253C106.2 39.9253 106.175 39.9225 106.148 39.9169C105.957 39.8745 105.837 39.6855 105.881 39.495C105.95 39.1916 106.053 38.8939 106.19 38.6102C107.296 36.3215 110.288 35.4467 112.853 36.6559C113.029 36.7406 113.106 36.9494 113.022 37.1258C112.938 37.3036 112.726 37.3742 112.553 37.2951C110.33 36.2467 107.763 36.9762 106.825 38.915C106.712 39.1507 106.626 39.3976 106.57 39.6488C106.533 39.8125 106.386 39.9253 106.225 39.9253Z" fill="#472B29"/>
<path d="M14.8584 48.2167H0.705527C0.316076 48.2167 0 47.9006 0 47.5112C0 47.1217 0.316076 46.8057 0.705527 46.8057H14.8584C15.2478 46.8057 15.5639 47.1217 15.5639 47.5112C15.5639 47.9006 15.2493 48.2167 14.8584 48.2167ZM18.9236 48.2167H16.8847C16.4952 48.2167 16.1791 47.9006 16.1791 47.5112C16.1791 47.1217 16.4952 46.8057 16.8847 46.8057H18.9236C19.3131 46.8057 19.6292 47.1217 19.6292 47.5112C19.6292 47.9006 19.3131 48.2167 18.9236 48.2167ZM24.6455 48.2167H21.0529C20.6635 48.2167 20.3474 47.9006 20.3474 47.5112C20.3474 47.1217 20.6635 46.8057 21.0529 46.8057H24.6455C25.0349 46.8057 25.351 47.1217 25.351 47.5112C25.351 47.9006 25.0349 48.2167 24.6455 48.2167ZM24.6455 50.8483H11.0768C10.6873 50.8483 10.3712 50.5323 10.3712 50.1428C10.3712 49.7534 10.6873 49.4373 11.0768 49.4373H24.6455C25.0349 49.4373 25.351 49.7534 25.351 50.1428C25.351 50.5323 25.0349 50.8483 24.6455 50.8483ZM8.63283 50.8483H7.81442C7.42496 50.8483 7.10889 50.5323 7.10889 50.1428C7.10889 49.7534 7.42496 49.4373 7.81442 49.4373H8.63283C9.02228 49.4373 9.33835 49.7534 9.33835 50.1428C9.33835 50.5323 9.02369 50.8483 8.63283 50.8483ZM5.27875 50.8483H3.22426C2.83481 50.8483 2.51873 50.5323 2.51873 50.1428C2.51873 49.7534 2.83481 49.4373 3.22426 49.4373H5.27875C5.6682 49.4373 5.98428 49.7534 5.98428 50.1428C5.98428 50.5323 5.66961 50.8483 5.27875 50.8483ZM18.1701 45.5851H11.0768C10.6873 45.5851 10.3712 45.269 10.3712 44.8796C10.3712 44.4901 10.6873 44.174 11.0768 44.174H18.1701C18.5596 44.174 18.8757 44.4901 18.8757 44.8796C18.8757 45.269 18.5596 45.5851 18.1701 45.5851ZM18.1701 42.9535H16.3964C16.007 42.9535 15.6909 42.6374 15.6909 42.248C15.6909 41.8585 16.007 41.5424 16.3964 41.5424H18.1701C18.5596 41.5424 18.8757 41.8585 18.8757 42.248C18.8757 42.6374 18.5596 42.9535 18.1701 42.9535ZM13.5574 53.4799H11.0754C10.6859 53.4799 10.3698 53.1639 10.3698 52.7744C10.3698 52.385 10.6859 52.0689 11.0754 52.0689H13.5574C13.9469 52.0689 14.2629 52.385 14.2629 52.7744C14.2629 53.1639 13.9483 53.4799 13.5574 53.4799ZM89.8954 11.1385H75.7425C75.3531 11.1385 75.037 10.8224 75.037 10.4329C75.037 10.0435 75.3531 9.7274 75.7425 9.7274H89.8954C90.2849 9.7274 90.6009 10.0435 90.6009 10.4329C90.6009 10.8224 90.2849 11.1385 89.8954 11.1385ZM93.9607 11.1385H91.9217C91.5322 11.1385 91.2162 10.8224 91.2162 10.4329C91.2162 10.0435 91.5322 9.7274 91.9217 9.7274H93.9607C94.3501 9.7274 94.6662 10.0435 94.6662 10.4329C94.6662 10.8224 94.3501 11.1385 93.9607 11.1385ZM99.6825 11.1385H96.0899C95.7005 11.1385 95.3844 10.8224 95.3844 10.4329C95.3844 10.0435 95.7005 9.7274 96.0899 9.7274H99.6825C100.072 9.7274 100.388 10.0435 100.388 10.4329C100.388 10.8224 100.072 11.1385 99.6825 11.1385ZM96.8237 5.87663H83.255C82.8655 5.87663 82.5495 5.56055 82.5495 5.1711C82.5495 4.78165 82.8655 4.46558 83.255 4.46558H96.8237C97.2131 4.46558 97.5292 4.78165 97.5292 5.1711C97.5292 5.56055 97.2145 5.87663 96.8237 5.87663ZM80.811 5.87663H79.994C79.6046 5.87663 79.2885 5.56055 79.2885 5.1711C79.2885 4.78165 79.6046 4.46558 79.994 4.46558H80.811C81.2005 4.46558 81.5166 4.78165 81.5166 5.1711C81.5166 5.56055 81.2005 5.87663 80.811 5.87663ZM77.4584 5.87663H75.4025C75.013 5.87663 74.697 5.56055 74.697 5.1711C74.697 4.78165 75.013 4.46558 75.4025 4.46558H77.4584C77.8478 4.46558 78.1639 4.78165 78.1639 5.1711C78.1639 5.56055 77.8478 5.87663 77.4584 5.87663ZM93.2072 8.50683H86.1138C85.7243 8.50683 85.4083 8.19076 85.4083 7.80131C85.4083 7.41186 85.7243 7.09578 86.1138 7.09578H93.2072C93.5966 7.09578 93.9127 7.41186 93.9127 7.80131C93.9127 8.19076 93.5966 8.50683 93.2072 8.50683Z" fill="white"/>
<path d="M93.207 5.87663H91.4333C91.0439 5.87663 90.7278 5.56055 90.7278 5.1711C90.7278 4.78165 91.0439 4.46558 91.4333 4.46558H93.207C93.5965 4.46558 93.9125 4.78165 93.9125 5.1711C93.9125 5.56055 93.5965 5.87663 93.207 5.87663ZM84.0592 8.50683H81.5771C81.1877 8.50683 80.8716 8.19076 80.8716 7.80131C80.8716 7.41186 81.1877 7.09578 81.5771 7.09578H84.0592C84.4486 7.09578 84.7647 7.41186 84.7647 7.80131C84.7647 8.19076 84.45 8.50683 84.0592 8.50683Z" fill="white"/>
<path d="M81.7731 30.2157C83.3507 29.7317 85.0369 30.6249 85.3191 31.542L93.0884 56.8324C93.7755 59.0689 92.8824 60.7565 91.3048 61.2405L40.9302 76.7155C40.0087 76.9991 39.0506 76.8115 38.3169 76.2922" fill="#EC795A"/>
<path d="M40.0475 77.6247C39.277 77.6247 38.5207 77.3862 37.8688 76.9262C37.5189 76.6779 37.4356 76.1939 37.6825 75.844C37.9309 75.4926 38.4149 75.4094 38.7648 75.6577C39.3349 76.0613 40.0376 76.1713 40.7022 75.9738L91.0768 60.4988C91.6568 60.3195 92.0928 59.9343 92.3355 59.3812C92.6149 58.7476 92.6191 57.9433 92.3482 57.0586L84.5789 31.7683C84.5295 31.6102 84.2643 31.2928 83.7295 31.067C83.1735 30.8299 82.5428 30.789 82.0009 30.9555C81.5903 31.0853 81.1571 30.8511 81.0315 30.4419C80.9045 30.0327 81.136 29.5981 81.5452 29.4725C82.4426 29.1959 83.4346 29.2552 84.3348 29.6376C85.2068 30.0073 85.8517 30.6338 86.0619 31.3139L93.8298 56.6042C94.2122 57.8488 94.1868 59.0256 93.7564 60.0049C93.3317 60.97 92.5429 61.6728 91.5312 61.9804L41.1566 77.4554C40.7911 77.5697 40.4186 77.6247 40.0475 77.6247Z" fill="#472B29"/>
<path d="M83.7335 59.7338L39.4095 73.3491C36.1867 74.3396 32.7409 72.5123 31.7503 69.2895L25.8817 50.1838C24.8912 46.9609 26.7185 43.5152 29.9413 42.5246L74.2654 28.9093C77.4882 27.9188 80.934 29.7461 81.9246 32.9689L87.7932 52.0746C88.7837 55.2975 86.9564 58.7432 83.7335 59.7338Z" fill="#F8AB97"/>
<path d="M37.6142 74.4665C36.4896 74.4665 35.372 74.1914 34.3462 73.6467C32.6967 72.7719 31.4874 71.3128 30.9427 69.5377L25.0742 50.4335C24.5281 48.6584 24.7087 46.7718 25.5835 45.1208C26.4584 43.4713 27.9174 42.262 29.6925 41.7174L74.0166 28.1021C75.7888 27.5532 77.6768 27.7381 79.3292 28.6115C80.9787 29.4864 82.188 30.9454 82.7326 32.7205L88.6012 51.8262C89.1473 53.6013 88.9667 55.4879 88.0918 57.1388C87.217 58.7883 85.7579 59.9976 83.9828 60.5423L39.6588 74.1575C38.9871 74.3649 38.3 74.4665 37.6142 74.4665ZM76.0584 29.4864C75.5405 29.4864 75.0212 29.564 74.5133 29.7192L30.1878 43.3344C28.8459 43.7465 27.7425 44.6622 27.0793 45.9139C26.4161 47.1655 26.2792 48.592 26.6912 49.9354L32.5598 69.041C32.9718 70.3829 33.8876 71.4864 35.1392 72.151C36.3894 72.8128 37.8146 72.9511 39.1621 72.539L83.4861 58.9238C84.8281 58.5117 85.9315 57.596 86.5947 56.3444C87.2579 55.0928 87.3948 53.6662 86.9827 52.3229L81.1142 33.2158C80.7021 31.8739 79.7864 30.7704 78.5348 30.1072C77.7573 29.6966 76.9106 29.4864 76.0584 29.4864Z" fill="#472B29"/>
<path d="M63.6601 37.1511L32.5802 46.6983C33.1714 48.6258 32.1978 50.6323 30.4058 51.184L34.9324 65.9211C36.7259 65.3707 38.659 66.4869 39.2517 68.4144L81.0951 55.5611C80.5024 53.6336 81.476 51.6243 83.2695 51.0739L78.7428 36.3369C76.9508 36.8872 75.0176 35.7725 74.425 33.845L70.6674 34.9992" fill="#EE8670"/>
<path d="M39.2515 68.8731C39.0553 68.8731 38.8733 68.7461 38.8126 68.55C38.5601 67.7288 38.0267 67.05 37.3127 66.6366C36.61 66.2302 35.8141 66.1329 35.0677 66.3614C34.952 66.3995 34.8278 66.3868 34.7178 66.329C34.6105 66.2725 34.5301 66.1752 34.4948 66.0595L29.9667 51.3224C29.892 51.0797 30.0288 50.8229 30.2701 50.7495C31.818 50.274 32.6562 48.5187 32.1412 46.8381C32.0664 46.5954 32.2033 46.3386 32.4446 46.2652L63.5244 36.7166C63.7714 36.6432 64.0239 36.7773 64.0973 37.02C64.1707 37.2627 64.0366 37.5153 63.7953 37.5886L33.1303 47.0103C33.4958 48.8728 32.5955 50.7256 30.9714 51.4593L35.2455 65.3751C36.1006 65.2227 36.9839 65.385 37.7727 65.8408C38.5601 66.2937 39.1725 66.9964 39.5337 67.8473L80.5446 55.248C80.1791 53.384 81.0793 51.5299 82.7035 50.7975L78.4294 36.8803C76.674 37.1907 74.8876 36.1578 74.1426 34.411L70.8012 35.4368C70.5529 35.5116 70.3017 35.3747 70.2283 35.1334C70.1536 34.8907 70.2904 34.6339 70.5317 34.5605L74.2894 33.4077C74.5363 33.3315 74.7889 33.4698 74.8622 33.7111C75.3787 35.3902 77.0578 36.3765 78.6072 35.8996C78.8541 35.8234 79.1067 35.9617 79.1801 36.203L83.7067 50.94C83.742 51.0572 83.7307 51.1827 83.6743 51.29C83.6178 51.3972 83.5205 51.4776 83.4048 51.5129C81.8554 51.9884 81.0187 53.7438 81.5337 55.4258C81.6085 55.6685 81.4716 55.9253 81.2303 55.9987L39.3883 68.852C39.3418 68.8661 39.2966 68.8731 39.2515 68.8731Z" fill="#472B29"/>
<path d="M65.0609 37.1794C64.8647 37.1794 64.6827 37.0524 64.622 36.8562C64.5472 36.6135 64.6841 36.3567 64.9254 36.2833L65.6253 36.0689C65.8722 35.9913 66.1248 36.1309 66.1982 36.3722C66.2729 36.6149 66.1361 36.8718 65.8948 36.9451L65.1949 37.1596C65.1512 37.1723 65.106 37.1794 65.0609 37.1794Z" fill="#472B29"/>
<path d="M54.7905 44.4777C53.9166 44.7462 53.104 45.1841 52.3993 45.7666C51.6945 46.3491 51.1114 47.0646 50.6833 47.8724C50.2551 48.6803 49.9902 49.5645 49.9037 50.4747C49.8173 51.3849 49.9109 52.3032 50.1794 53.1772C50.4478 54.0511 50.8858 54.8637 51.4682 55.5684C52.0507 56.2732 52.7663 56.8563 53.5741 57.2845C54.3819 57.7126 55.2662 57.9775 56.1763 58.064C57.0865 58.1504 58.0048 58.0568 58.8788 57.7883C59.7528 57.5199 60.5654 57.0819 61.2701 56.4995C61.9748 55.917 62.5579 55.2014 62.9861 54.3936C63.4143 53.5858 63.6792 52.7016 63.7656 51.7914C63.8521 50.8812 63.7584 49.9629 63.49 49.0889C63.2215 48.2149 62.7836 47.4024 62.2011 46.6976C61.6186 45.9929 60.9031 45.4098 60.0953 44.9816C59.2874 44.5534 58.4032 44.2885 57.493 44.2021C56.5828 44.1156 55.6645 44.2093 54.7905 44.4777Z" fill="#DD583A"/>
<path d="M56.8428 58.5513C53.6694 58.5513 50.7231 56.4969 49.7438 53.3093C49.1625 51.4142 49.353 49.4063 50.2814 47.6552C51.2085 45.9041 52.7635 44.6186 54.6585 44.0373C56.5578 43.4517 58.5643 43.6464 60.314 44.5734C62.0651 45.5005 63.3492 47.0569 63.932 48.9519C65.1342 52.8634 62.9287 57.0246 59.0187 58.224C58.2934 58.4455 57.5625 58.5513 56.8428 58.5513ZM56.8456 44.6242C56.2036 44.6242 55.5588 44.7188 54.928 44.9135C51.4992 45.9662 49.5674 49.6109 50.6201 53.0398C51.6727 56.4686 55.3203 58.399 58.7477 57.3477C62.1766 56.2951 64.1083 52.6503 63.0557 49.2215C62.5449 47.5592 61.4189 46.1962 59.8836 45.3834C58.9326 44.8782 57.8926 44.6242 56.8456 44.6242Z" fill="#472B29"/>
<path d="M43.1218 52.6616C42.5645 52.8327 42.098 53.2183 41.8249 53.7335C41.5518 54.2487 41.4946 54.8512 41.6658 55.4086C41.837 55.9659 42.2226 56.4325 42.7377 56.7055C43.2529 56.9786 43.8554 57.0358 44.4128 56.8646C44.9701 56.6934 45.4367 56.3078 45.7097 55.7927C45.9828 55.2775 46.04 54.675 45.8688 54.1176C45.6977 53.5603 45.3121 53.0937 44.7969 52.8207C44.2817 52.5476 43.6792 52.4904 43.1218 52.6616Z" fill="#DD583A"/>
<path d="M43.7709 57.4167C42.635 57.4167 41.5809 56.6816 41.2296 55.5414C41.0222 54.8627 41.0885 54.1431 41.4215 53.5152C41.7545 52.8873 42.3119 52.4272 42.9892 52.2198C43.6665 52.011 44.3861 52.0801 45.014 52.4117C45.6405 52.7433 46.102 53.3021 46.3094 53.9794C46.5182 54.6581 46.4505 55.3778 46.1175 56.0057C45.7845 56.6322 45.2285 57.0922 44.5498 57.2996C44.293 57.38 44.0291 57.4167 43.7709 57.4167ZM43.7723 53.0199C43.6016 53.0199 43.428 53.0453 43.2601 53.0975C42.3429 53.3797 41.8251 54.3562 42.1073 55.2719C42.3895 56.1877 43.3688 56.7056 44.2817 56.4234C44.7248 56.2865 45.0902 55.9859 45.309 55.5753C45.5277 55.1647 45.5714 54.6934 45.4345 54.2503C45.2977 53.8058 44.9957 53.4404 44.5851 53.2217C44.3311 53.0876 44.0531 53.0199 43.7723 53.0199Z" fill="#472B29"/>
<path d="M69.0418 44.7018C68.4844 44.873 68.0179 45.2586 67.7448 45.7738C67.4717 46.2889 67.4145 46.8915 67.5857 47.4488C67.7569 48.0062 68.1425 48.4727 68.6576 48.7458C69.1728 49.0189 69.7753 49.0761 70.3327 48.9049C70.8901 48.7337 71.3566 48.3481 71.6297 47.833C71.9027 47.3178 71.96 46.7153 71.7888 46.1579C71.6176 45.6005 71.232 45.134 70.7168 44.861C70.2017 44.5879 69.5991 44.5307 69.0418 44.7018Z" fill="#DD583A"/>
<path d="M69.6864 49.4554C69.2574 49.4554 68.8327 49.351 68.4447 49.145C67.8182 48.8119 67.3582 48.256 67.1507 47.5773C66.7204 46.1775 67.5091 44.6874 68.9089 44.2571C69.5876 44.0468 70.3087 44.1174 70.9352 44.449C71.5617 44.7806 72.0231 45.3393 72.2305 46.0166C72.4394 46.6954 72.3716 47.4136 72.0386 48.0415C71.7056 48.6694 71.1482 49.1294 70.4709 49.3369C70.2127 49.4173 69.9474 49.4554 69.6864 49.4554ZM69.6892 45.0571C69.5199 45.0571 69.3492 45.0825 69.1798 45.1347C68.2641 45.417 67.7462 46.3934 68.0284 47.3092C68.1653 47.7522 68.4658 48.1177 68.8765 48.3364C69.2871 48.5551 69.7584 48.6017 70.2014 48.462C70.6459 48.3251 71.0114 48.0232 71.2301 47.6125C71.4488 47.2019 71.4925 46.732 71.3557 46.289C71.1228 45.5397 70.4328 45.0571 69.6892 45.0571Z" fill="#472B29"/>
<path d="M86.3314 50.2346C84.214 50.2346 82.1833 51.0758 80.686 52.573C79.1888 54.0702 78.3477 56.1009 78.3477 58.2184C78.3477 60.3358 79.1888 62.3665 80.686 63.8637C82.1833 65.361 84.214 66.2021 86.3314 66.2021C88.4488 66.2021 90.4795 65.361 91.9768 63.8637C93.474 62.3665 94.3151 60.3358 94.3151 58.2184C94.3151 56.1009 93.474 54.0702 91.9768 52.573C90.4795 51.0758 88.4488 50.2346 86.3314 50.2346Z" fill="#FBCD59"/>
<path d="M86.3314 66.9074C81.5394 66.9074 77.6421 63.0087 77.6421 58.2181C77.6421 53.4276 81.5408 49.5303 86.3314 49.5303C91.1219 49.5303 95.0192 53.4276 95.0192 58.2181C95.0192 63.0087 91.1219 66.9074 86.3314 66.9074ZM86.3314 50.9399C82.3169 50.9399 79.0531 54.2037 79.0531 58.2167C79.0531 62.2312 82.3169 65.4949 86.3314 65.4949C90.3444 65.4949 93.6082 62.2312 93.6082 58.2167C93.6082 54.2051 90.343 50.9399 86.3314 50.9399Z" fill="#472B29"/>
<path d="M86.3298 52.999C84.9455 52.999 83.6179 53.5489 82.6391 54.5278C81.6603 55.5066 81.1104 56.8342 81.1104 58.2185C81.1104 59.6028 81.6603 60.9304 82.6391 61.9092C83.6179 62.8881 84.9455 63.438 86.3298 63.438C87.7141 63.438 89.0417 62.8881 90.0206 61.9092C90.9994 60.9304 91.5493 59.6028 91.5493 58.2185C91.5493 56.8342 90.9994 55.5066 90.0206 54.5278C89.0417 53.5489 87.7141 52.999 86.3298 52.999Z" fill="#F1BC19"/>
<path d="M86.331 63.7905C83.2578 63.7905 80.7588 61.2915 80.7588 58.2182C80.7588 55.145 83.2578 52.646 86.331 52.646C89.4043 52.646 91.9033 55.145 91.9033 58.2182C91.9033 61.2915 89.4029 63.7905 86.331 63.7905ZM86.331 53.3501C83.6472 53.3501 81.4643 55.533 81.4643 58.2168C81.4643 60.9007 83.6472 63.0836 86.331 63.0836C89.0149 63.0836 91.1978 60.9007 91.1978 58.2168C91.1978 55.533 89.0149 53.3501 86.331 53.3501Z" fill="#472B29"/>
<path d="M74.5404 59.4121C72.423 59.4121 70.3923 60.2532 68.895 61.7505C67.3978 63.2477 66.5566 65.2784 66.5566 67.3958C66.5566 69.5133 67.3978 71.544 68.895 73.0412C70.3923 74.5385 72.423 75.3796 74.5404 75.3796C76.6578 75.3796 78.6885 74.5385 80.1857 73.0412C81.683 71.544 82.5241 69.5133 82.5241 67.3958C82.5241 65.2784 81.683 63.2477 80.1857 61.7505C78.6885 60.2532 76.6578 59.4121 74.5404 59.4121Z" fill="#FBCD59"/>
<path d="M74.5403 76.0849C69.7484 76.0849 65.8511 72.1861 65.8511 67.3956C65.8511 62.6051 69.7498 58.7078 74.5403 58.7078C79.3309 58.7078 83.2282 62.6051 83.2282 67.3956C83.2282 72.1861 79.3323 76.0849 74.5403 76.0849ZM74.5403 60.1174C70.5259 60.1174 67.2621 63.3812 67.2621 67.3942C67.2621 71.4087 70.5259 74.6724 74.5403 74.6724C78.5534 74.6724 81.8172 71.4087 81.8172 67.3942C81.8172 63.3826 78.5534 60.1174 74.5403 60.1174Z" fill="#472B29"/>
<path d="M74.5403 62.1763C73.8549 62.1763 73.1761 62.3113 72.5429 62.5736C71.9096 62.8359 71.3342 63.2203 70.8496 63.705C70.3649 64.1897 69.9804 64.7651 69.7181 65.3983C69.4558 66.0316 69.3208 66.7103 69.3208 67.3958C69.3208 68.0812 69.4558 68.7599 69.7181 69.3932C69.9804 70.0264 70.3649 70.6018 70.8496 71.0865C71.3342 71.5712 71.9096 71.9556 72.5429 72.2179C73.1761 72.4802 73.8549 72.6152 74.5403 72.6152C75.2257 72.6152 75.9044 72.4802 76.5377 72.2179C77.171 71.9556 77.7463 71.5712 78.231 71.0865C78.7157 70.6018 79.1002 70.0264 79.3625 69.3932C79.6248 68.7599 79.7598 68.0812 79.7598 67.3958C79.7598 66.7103 79.6248 66.0316 79.3625 65.3983C79.1002 64.7651 78.7157 64.1897 78.231 63.705C77.7463 63.2203 77.171 62.8359 76.5377 62.5736C75.9044 62.3113 75.2257 62.1763 74.5403 62.1763Z" fill="#F1BC19"/>
<path d="M74.5405 72.9679C71.4672 72.9679 68.9668 70.4689 68.9668 67.3957C68.9668 64.3224 71.4672 61.8234 74.5405 61.8234C77.6137 61.8234 80.1127 64.3224 80.1127 67.3957C80.1127 70.4689 77.6137 72.9679 74.5405 72.9679ZM74.5405 62.5275C71.8566 62.5275 69.6723 64.7104 69.6723 67.3943C69.6723 70.0781 71.8566 72.261 74.5405 72.261C77.2243 72.261 79.4072 70.0781 79.4072 67.3943C79.4072 64.7104 77.2243 62.5275 74.5405 62.5275ZM84.9512 55.8561H84.9357V56.5489H85.6469C86.2931 56.5489 86.6191 56.8551 86.7362 57.2347H84.9512V57.9275H86.7362C86.6191 58.3071 86.2931 58.6147 85.6469 58.6147H85.4042L85.3999 58.6104L85.3957 58.6147H84.9357V59.0846L84.9159 59.1043L84.9357 59.1241V59.3047H85.1205L87.2526 61.3874L87.7366 60.8921L86.0688 59.2623C86.8265 59.1085 87.3133 58.5455 87.446 57.9247H88.3914V57.2318H87.446C87.3923 56.9835 87.2766 56.7479 87.1144 56.539H88.39V55.8462H84.9512V55.8561Z" fill="#472B29"/>
<path d="M72.8386 64.8373H72.8231V65.5302H73.5342C74.1805 65.5302 74.5065 65.8364 74.6236 66.2159H72.8386V66.9088H74.6236C74.5065 67.2883 74.1805 67.5959 73.5342 67.5959H73.2915L73.2873 67.5917L73.2831 67.5959H72.8231V68.0658L72.8033 68.0856L72.8231 68.1053V68.2859H73.0079L75.14 70.3687L75.624 69.8734L73.9561 68.2436C74.7139 68.0898 75.2007 67.5268 75.3333 66.9059H76.2787V66.2131H75.3333C75.2797 65.9648 75.164 65.7291 75.0017 65.5203H76.2773V64.8275H72.8386V64.8373ZM53.8811 48.661L53.8613 48.6681L54.1351 49.4978L54.9873 49.2156C55.762 48.9587 56.2742 49.1958 56.5649 49.605L54.4272 50.3119L54.7009 51.1416L56.8387 50.4347C56.8485 50.9356 56.579 51.4337 55.8044 51.6891L55.5123 51.7851L55.5052 51.7823L55.5024 51.7893L54.9521 51.9713L55.1383 52.5358L55.1214 52.5682L55.1539 52.5852L55.2258 52.8025L55.4474 52.7291L58.8268 54.3814L59.2106 53.5969L56.5663 52.3044C57.413 51.8204 57.7728 50.9526 57.6881 50.1567L58.8212 49.7828L58.5474 48.9531L57.4144 49.327C57.2521 49.0505 57.0207 48.8134 56.7427 48.6286L58.2723 48.1234L57.9985 47.2937L53.8769 48.6554L53.8811 48.661Z" fill="#472B29"/>
<path d="M48.2005 82.837C50.8575 82.837 53.1631 82.837 53.1956 82.837C56.1729 82.837 58.5872 80.4749 58.5872 77.5611C58.5872 75.0183 56.75 72.8975 54.3047 72.3966C54.3329 72.1737 54.3526 71.9493 54.3526 71.7193C54.3526 68.701 51.8523 66.2543 48.7691 66.2543C46.9489 66.2543 45.336 67.1108 44.3172 68.4315C44.0562 65.0718 40.99 62.4797 37.4031 62.9101C34.7799 63.2248 32.6097 65.2087 32.1271 67.7514C31.9719 68.567 31.9889 69.3586 32.1427 70.1008C31.44 69.36 30.4381 68.893 29.3234 68.893C27.283 68.893 25.6165 70.4479 25.4853 72.4121C24.5583 72.2118 23.5508 72.2245 22.4896 72.6139C20.4606 73.3589 19.0156 75.2286 18.931 77.3494C18.811 80.3592 21.2691 82.837 24.3184 82.837C24.5498 82.837 25.364 82.837 25.5516 82.837H36.7469" fill="#FDFCEF"/>
<path d="M53.1954 83.544H48.2002C47.8108 83.544 47.4947 83.2279 47.4947 82.8385C47.4947 82.449 47.8108 82.1329 48.2002 82.1329H53.1954C55.779 82.1329 57.8801 80.0827 57.8801 77.5625C57.8801 75.4121 56.3166 73.5297 54.1605 73.0895C53.8007 73.0147 53.5566 72.676 53.6017 72.3106C53.6257 72.1173 53.6427 71.9211 53.6427 71.7193C53.6427 69.0948 51.4541 66.9599 48.7646 66.9599C47.2238 66.9599 45.8043 67.6527 44.8701 68.8634C44.6923 69.0948 44.3861 69.1893 44.111 69.1089C43.8316 69.0242 43.6312 68.7787 43.6101 68.488C43.4986 67.0488 42.8128 65.7449 41.6769 64.8136C40.5086 63.8541 39.0185 63.4322 37.4833 63.61C35.1607 63.8866 33.2402 65.6433 32.8155 67.8813C32.6829 68.5812 32.6871 69.2796 32.8282 69.9583C32.8931 70.2674 32.7435 70.5806 32.4641 70.7274C32.1862 70.8727 31.8447 70.8163 31.6246 70.5863C31.0206 69.9499 30.2008 69.5985 29.3175 69.5985C27.668 69.5985 26.2908 70.8558 26.1835 72.4587C26.1694 72.6647 26.0678 72.851 25.9042 72.9752C25.7405 73.0979 25.5316 73.1473 25.3313 73.1008C24.4268 72.906 23.5773 72.9625 22.7279 73.2771C20.9471 73.9305 19.7012 75.5786 19.6306 77.3777C19.5812 78.6123 20.0285 79.7878 20.8935 80.6866C21.7895 81.6179 23.003 82.1315 24.3125 82.1315H36.7411C37.1305 82.1315 37.4466 82.4476 37.4466 82.837C37.4466 83.2265 37.1305 83.5426 36.7411 83.5426H24.3139C22.6418 83.5426 21.0261 82.8582 19.8775 81.6645C18.7445 80.4848 18.1575 78.9425 18.221 77.3212C18.3169 74.9577 19.9326 72.8002 22.2425 71.9508C23.1018 71.6347 23.9894 71.5218 24.8967 71.6065C25.3821 69.6366 27.1953 68.1861 29.3203 68.1861C30.016 68.1861 30.6989 68.3455 31.3156 68.6418C31.3283 68.3018 31.3664 67.9603 31.4313 67.6174C31.9689 64.7798 34.3902 62.556 37.3168 62.2074C39.2386 61.9704 41.1054 62.515 42.5743 63.7187C43.6284 64.5836 44.3777 65.7068 44.7558 66.9669C45.872 66.0526 47.276 65.546 48.7675 65.546C52.2358 65.546 55.0565 68.3145 55.0565 71.7165C55.0565 71.7645 55.0551 71.8125 55.0537 71.8619C57.5442 72.645 59.2925 74.9492 59.2925 77.5597C59.2925 80.8601 56.5565 83.544 53.1954 83.544ZM39.5674 83.544H39.0608C38.6714 83.544 38.3553 83.2279 38.3553 82.8385C38.3553 82.449 38.6714 82.1329 39.0608 82.1329H39.5674C39.9568 82.1329 40.2729 82.449 40.2729 82.8385C40.2729 83.2279 39.9568 83.544 39.5674 83.544Z" fill="#472B29"/>
<path d="M50.7855 75.3542C50.7601 75.3542 50.7347 75.3514 50.7079 75.3457C50.5174 75.3034 50.3975 75.1143 50.4412 74.9238C50.4934 74.691 50.5739 74.4638 50.6797 74.2479C51.5334 72.5208 53.8941 71.883 55.9316 72.827C56.1094 72.9088 56.187 73.1177 56.1038 73.2941C56.0219 73.4719 55.8089 73.548 55.6367 73.4662C53.9378 72.6802 52.0004 73.1713 51.3133 74.5598C51.2328 74.7234 51.1707 74.897 51.1312 75.0762C51.0931 75.2427 50.9464 75.3542 50.7855 75.3542ZM43.5073 83.544H41.9453C41.5558 83.544 41.2397 83.2279 41.2397 82.8384C41.2397 82.449 41.5558 82.1329 41.9453 82.1329H43.5073C43.8968 82.1329 44.2128 82.449 44.2128 82.8384C44.2128 83.2279 43.8968 83.544 43.5073 83.544Z" fill="#472B29"/>
</svg>
