<svg width="21" height="21" viewBox="0 0 21 21" fill="none" xmlns="http://www.w3.org/2000/svg">
<path d="M6.125 3.5C4.65237 3.5 3.5 4.65325 3.5 6.125C3.5 7.59675 4.65237 8.75 6.125 8.75C7.59762 8.75 8.75 7.59675 8.75 6.125C8.75 4.65325 7.59762 3.5 6.125 3.5ZM14.875 3.5C13.4024 3.5 12.25 4.65325 12.25 6.125C12.25 7.59675 13.4024 8.75 14.875 8.75C16.3476 8.75 17.5 7.59675 17.5 6.125C17.5 4.65325 16.3476 3.5 14.875 3.5ZM6.125 10.5C3.0345 10.5 0.875 11.6574 0.875 13.3147V15.75H7.875V13.3147C7.875 12.3741 8.2162 11.5441 8.8252 10.8538C8.05432 10.6271 7.14087 10.5 6.125 10.5ZM14.875 10.5C11.7845 10.5 9.625 11.6574 9.625 13.3147V15.75H14.875V14.5845V14C14.875 13.0331 15.6581 12.25 16.625 12.25H19.7866C19.5906 11.9534 19.291 11.6455 18.8159 11.3682C17.8709 10.8169 16.4342 10.5 14.875 10.5ZM16.625 14V16.625H14V18.375H16.625V21H18.375V18.375H21V16.625H18.375V14H16.625Z" fill="#388B40"/>
</svg>
