<svg width="55" height="55" viewBox="0 0 55 55" fill="none" xmlns="http://www.w3.org/2000/svg">
<path d="M9.16683 4.5835C6.63454 4.5835 4.5835 6.63454 4.5835 9.16683V41.2502H9.16683V9.16683H41.2502V4.5835H9.16683ZM18.3335 13.7502C15.8012 13.7502 13.7502 15.8012 13.7502 18.3335V45.8335C13.7502 48.3658 15.8012 50.4168 18.3335 50.4168H45.8335C48.3658 50.4168 50.4168 48.3658 50.4168 45.8335V18.3335C50.4168 15.8012 48.3658 13.7502 45.8335 13.7502H18.3335ZM32.0835 22.9168C34.6525 22.9168 36.6668 24.9289 36.6668 27.5002C36.6668 30.0714 34.6525 32.0835 32.0835 32.0835C29.5145 32.0835 27.5002 30.0714 27.5002 27.5002C27.5002 24.9289 29.5145 22.9168 32.0835 22.9168ZM32.0835 34.3752C37.2237 34.3752 41.2502 36.7763 41.2502 39.8402V41.2502H22.9168V39.8402C22.9168 36.7763 26.9433 34.3752 32.0835 34.3752Z" fill="#388B40"/>
</svg>
