<svg width="56" height="56" viewBox="0 0 56 56" fill="none" xmlns="http://www.w3.org/2000/svg">
<g clip-path="url(#clip0_10_1893)">
<path d="M0 0V19.3846H19.3846V0H0ZM23.6923 0V4.30769H28V0H23.6923ZM28 4.30769V8.61539H23.6923V17.2308H28V12.9231H32.3077V4.30769H28ZM28 17.2308V23.6923H8.61539V28H4.30769V32.3077H12.9231V28H17.2308V32.3077H28V28H32.3077V32.3077H38.7692V28H43.0769V23.6923H32.3077V17.2308H28ZM43.0769 28V32.3077H56V28H51.6923V23.6923H47.3846V28H43.0769ZM4.30769 28V23.6923H0V28H4.30769ZM36.6154 0V19.3846H56V0H36.6154ZM4.30769 4.30769H15.0769V15.0769H4.30769V4.30769ZM40.9231 4.30769H51.6923V15.0769H40.9231V4.30769ZM6.46154 6.46154V12.9231H12.9231V6.46154H6.46154ZM43.0769 6.46154V12.9231H49.5385V6.46154H43.0769ZM23.6923 34.4615V38.7692H28V34.4615H23.6923ZM28 38.7692V43.0769H23.6923V51.6923H28V47.3846H36.6154V43.0769H40.9231V38.7692H45.2308V43.0769H40.9231V47.3846H36.6154V56H40.9231V51.6923H45.2308V47.3846H47.3846V51.6923H45.2308V56H49.5385V51.6923H51.6923V47.3846H56V38.7692H51.6923V34.4615H36.6154V38.7692H28ZM51.6923 51.6923V56H56V51.6923H51.6923ZM28 51.6923V56H32.3077V51.6923H28ZM0 36.6154V56H19.3846V36.6154H0ZM4.30769 40.9231H15.0769V51.6923H4.30769V40.9231ZM6.46154 43.0769V49.5385H12.9231V43.0769H6.46154Z" fill="white"/>
</g>
<defs>
<clipPath id="clip0_10_1893">
<rect width="56" height="56" fill="white"/>
</clipPath>
</defs>
</svg>
