<svg width="56" height="55" viewBox="0 0 56 55" fill="none" xmlns="http://www.w3.org/2000/svg">
<path d="M52.8335 12.2708C52.8335 12.1658 52.7918 12.0651 52.7176 11.9909C52.6433 11.9166 52.5426 11.8749 52.4377 11.8749L48.8752 11.8749L48.8752 3.16659C48.8752 2.29179 48.1666 1.58325 47.2918 1.58325L46.5002 1.58325L45.7085 1.58325C44.8337 1.58325 44.1252 2.29179 44.1252 3.16658L44.1252 11.8749L40.5627 11.8749C40.4577 11.8749 40.357 11.9166 40.2828 11.9909C40.2085 12.0651 40.1668 12.1658 40.1668 12.2708C40.1668 12.3757 40.2086 12.4764 40.2828 12.5506C40.2907 12.5587 40.299 12.5664 40.3075 12.5738L45.9296 17.9655L45.9327 17.9686C45.9413 17.977 45.95 17.9853 45.959 17.9933C46.1055 18.1311 46.299 18.208 46.5002 18.2083C46.7013 18.208 46.8948 18.1311 47.0413 17.9933L47.0522 17.9841C47.0558 17.98 47.0594 17.9758 47.063 17.9717L52.7129 12.5553L52.7144 12.5537C52.7521 12.5169 52.7821 12.4728 52.8025 12.4242C52.823 12.3757 52.8335 12.3235 52.8335 12.2708Z" fill="#388B40"/>
<path d="M21.3519 12.0139C9.57851 12.0139 0 21.5924 0 33.3658C0 45.1391 9.57851 54.7176 21.3519 54.7176C33.1252 54.7176 42.7037 45.1391 42.7037 33.3658C42.7037 21.5924 33.1252 12.0139 21.3519 12.0139ZM21.3519 15.2167C31.3943 15.2167 39.5009 23.3233 39.5009 33.3658C39.5009 43.4082 31.3943 51.5148 21.3519 51.5148C11.3094 51.5148 3.20278 43.4082 3.20278 33.3658C3.20278 23.3233 11.3094 15.2167 21.3519 15.2167ZM14.4125 22.6898C14.2003 22.6868 13.9896 22.726 13.7927 22.8052C13.5958 22.8843 13.4165 23.0018 13.2654 23.1508C13.1143 23.2998 12.9943 23.4773 12.9124 23.6731C12.8305 23.8689 12.7883 24.079 12.7883 24.2912C12.7883 24.5035 12.8305 24.7136 12.9124 24.9093C12.9943 25.1051 13.1143 25.2827 13.2654 25.4317C13.4165 25.5807 13.5958 25.6982 13.7927 25.7773C13.9896 25.8564 14.2003 25.8956 14.4125 25.8926H19.7505C21.2547 25.8926 22.5249 26.7631 23.1201 28.0278H14.4125C14.2003 28.0248 13.9896 28.064 13.7927 28.1431C13.5958 28.2223 13.4165 28.3398 13.2654 28.4888C13.1143 28.6378 12.9943 28.8153 12.9124 29.0111C12.8305 29.2069 12.7883 29.417 12.7883 29.6292C12.7883 29.8414 12.8305 30.0515 12.9124 30.2473C12.9943 30.4431 13.1143 30.6206 13.2654 30.7696C13.4165 30.9186 13.5958 31.0361 13.7927 31.1153C13.9896 31.1944 14.2003 31.2336 14.4125 31.2306H23.1201C22.5249 32.4953 21.2547 33.3658 19.7505 33.3658H14.4125C14.0958 33.3659 13.7863 33.4599 13.5231 33.6359C13.2598 33.8118 13.0547 34.0619 12.9335 34.3545C12.8123 34.647 12.7806 34.9689 12.8423 35.2795C12.904 35.5901 13.0564 35.8754 13.2803 36.0994L22.8886 45.7077C23.0362 45.8614 23.2129 45.9841 23.4085 46.0686C23.6041 46.1532 23.8145 46.1978 24.0276 46.2C24.2406 46.2021 24.452 46.1618 24.6492 46.0813C24.8465 46.0007 25.0257 45.8816 25.1763 45.731C25.327 45.5803 25.4461 45.4011 25.5266 45.2039C25.6071 45.0066 25.6475 44.7953 25.6453 44.5822C25.6432 44.3692 25.5985 44.1587 25.514 43.9631C25.4295 43.7676 25.3068 43.5908 25.1531 43.4433L18.2784 36.5685H19.7505C23.0122 36.5685 25.7639 34.2785 26.4938 31.2306H28.2912C28.5034 31.2336 28.7141 31.1944 28.911 31.1153C29.1079 31.0361 29.2872 30.9186 29.4383 30.7696C29.5894 30.6206 29.7094 30.4431 29.7913 30.2473C29.8732 30.0515 29.9154 29.8414 29.9154 29.6292C29.9154 29.417 29.8732 29.2069 29.7913 29.0111C29.7094 28.8153 29.5894 28.6378 29.4383 28.4888C29.2872 28.3398 29.1079 28.2223 28.911 28.1431C28.7141 28.064 28.5034 28.0248 28.2912 28.0278H26.4938C26.3098 27.2595 25.9979 26.5398 25.5805 25.8926H28.2912C28.5034 25.8956 28.7141 25.8564 28.911 25.7773C29.1079 25.6982 29.2872 25.5807 29.4383 25.4317C29.5894 25.2827 29.7094 25.1051 29.7913 24.9093C29.8732 24.7136 29.9154 24.5035 29.9154 24.2912C29.9154 24.079 29.8732 23.8689 29.7913 23.6731C29.7094 23.4773 29.5894 23.2998 29.4383 23.1508C29.2872 23.0018 29.1079 22.8843 28.911 22.8052C28.7141 22.726 28.5034 22.6868 28.2912 22.6898H19.7505H14.4125Z" fill="#388B40"/>
</svg>
