<svg width="21" height="21" viewBox="0 0 21 21" fill="none" xmlns="http://www.w3.org/2000/svg">
<path d="M8.45972 1.75L8.02905 3.95801C7.31089 4.22958 6.64684 4.60898 6.06372 5.08765L3.94287 4.3562L1.90234 7.8938L3.59937 9.36865C3.5392 9.73786 3.50024 10.1138 3.50024 10.5C3.50024 10.8862 3.5392 11.2621 3.59937 11.6313L1.90234 13.1062L3.94287 16.6438L6.06372 15.9124C6.64684 16.391 7.31089 16.7704 8.02905 17.042L8.45972 19.25H12.5408L12.9714 17.042C13.6896 16.7704 14.3537 16.391 14.9368 15.9124L17.0576 16.6438L19.0981 13.1062L17.4011 11.6313C17.4613 11.2621 17.5002 10.8862 17.5002 10.5C17.5002 10.1138 17.4613 9.73786 17.4011 9.36865L19.0981 7.8938L17.0576 4.3562L14.9368 5.08765C14.3537 4.60898 13.6896 4.22958 12.9714 3.95801L12.5408 1.75H8.45972ZM10.5002 7C12.4331 7 14.0002 8.56712 14.0002 10.5C14.0002 12.4329 12.4331 14 10.5002 14C8.56737 14 7.00024 12.4329 7.00024 10.5C7.00024 8.56712 8.56737 7 10.5002 7Z" fill="#388B40"/>
</svg>
