<svg width="34" height="49" viewBox="0 0 34 49" fill="none" xmlns="http://www.w3.org/2000/svg">
<path d="M26.6875 26.875H21.0625C20.1994 26.875 19.5 26.1756 19.5 25.3125V19.6875C19.5 18.9969 18.9406 18.4375 18.25 18.4375H15.75C15.0594 18.4375 14.5 18.9969 14.5 19.6875V25.3125C14.5 26.1756 13.8006 26.875 12.9375 26.875H7.3125C6.44937 26.875 5.75 26.1756 5.75 25.3125V13.3831C5.75 11.9463 6.40875 10.5888 7.53687 9.7L16.4194 2.70063C16.76 2.43313 17.24 2.43313 17.58 2.70063L26.4637 9.7C27.5919 10.5888 28.25 11.9456 28.25 13.3819V25.3125C28.25 26.1756 27.5506 26.875 26.6875 26.875Z" fill="#8C8C8C"/>
<path d="M6.28494 46.6597V38.5575H7.78962V46.6597H6.28494ZM1.088 46.6597V38.5575H2.59268V46.6597H1.088ZM1.71302 43.3262V41.9141H7.01413V43.3262H1.71302ZM12.5071 46.7754C11.8975 46.7754 11.3535 46.6404 10.8751 46.3703C10.3967 46.0925 10.0186 45.7144 9.74082 45.236C9.46303 44.7576 9.32414 44.2136 9.32414 43.604C9.32414 42.9944 9.46303 42.4504 9.74082 41.972C10.0186 41.4936 10.3967 41.1194 10.8751 40.8493C11.3535 40.5715 11.8975 40.4326 12.5071 40.4326C13.109 40.4326 13.6491 40.5715 14.1275 40.8493C14.606 41.1194 14.9802 41.4936 15.2503 41.972C15.5281 42.4504 15.6669 42.9944 15.6669 43.604C15.6669 44.2136 15.5281 44.7576 15.2503 45.236C14.9802 45.7144 14.606 46.0925 14.1275 46.3703C13.6491 46.6404 13.109 46.7754 12.5071 46.7754ZM12.5071 45.5138C12.8389 45.5138 13.1321 45.4289 13.3868 45.2592C13.6491 45.0894 13.8536 44.8618 14.0002 44.5763C14.1545 44.2908 14.2279 43.9667 14.2201 43.604C14.2279 43.2336 14.1545 42.9057 14.0002 42.6202C13.8536 42.3347 13.6491 42.1109 13.3868 41.9489C13.1321 41.7791 12.8389 41.6942 12.5071 41.6942C12.1753 41.6942 11.8744 41.7791 11.6043 41.9489C11.342 42.1109 11.1375 42.3385 10.9909 42.6318C10.8443 42.9173 10.7709 43.2413 10.7709 43.604C10.7709 43.9667 10.8443 44.2908 10.9909 44.5763C11.1375 44.8618 11.342 45.0894 11.6043 45.2592C11.8744 45.4289 12.1753 45.5138 12.5071 45.5138ZM16.9173 46.6597V40.5599H18.3178L18.3409 41.7868L18.1094 41.8794C18.1789 41.6788 18.283 41.4936 18.4219 41.3238C18.5608 41.1464 18.7267 40.9959 18.9196 40.8724C19.1126 40.7413 19.317 40.6409 19.5331 40.5715C19.7491 40.4943 19.9691 40.4558 20.1928 40.4558C20.5246 40.4558 20.8179 40.5098 21.0725 40.6178C21.3348 40.7181 21.5509 40.8802 21.7207 41.1039C21.8981 41.3277 22.0293 41.6132 22.1142 41.9604L21.8943 41.9141L21.9869 41.7289C22.0718 41.5438 22.1914 41.3779 22.3457 41.2312C22.5 41.0769 22.6736 40.9419 22.8665 40.8261C23.0594 40.7027 23.2601 40.6101 23.4684 40.5483C23.6845 40.4866 23.8967 40.4558 24.105 40.4558C24.568 40.4558 24.9538 40.5483 25.2625 40.7335C25.5711 40.9187 25.8026 41.2004 25.9569 41.5785C26.1112 41.9566 26.1884 42.4234 26.1884 42.979V46.6597H24.7532V43.0716C24.7532 42.7629 24.7107 42.5083 24.6259 42.3077C24.5487 42.107 24.4252 41.9604 24.2555 41.8678C24.0934 41.7675 23.8889 41.7174 23.642 41.7174C23.4491 41.7174 23.2639 41.7521 23.0865 41.8215C22.9167 41.8833 22.7701 41.9759 22.6466 42.0993C22.5232 42.2151 22.4267 42.3501 22.3573 42.5044C22.2878 42.6588 22.2531 42.8285 22.2531 43.0137V46.6597H20.8179V43.06C20.8179 42.7668 20.7754 42.5237 20.6905 42.3308C20.6057 42.1302 20.4822 41.9797 20.3202 41.8794C20.1581 41.7714 19.9613 41.7174 19.7299 41.7174C19.5369 41.7174 19.3556 41.7521 19.1859 41.8215C19.0161 41.8833 18.8695 41.972 18.746 42.0878C18.6226 42.2035 18.5261 42.3385 18.4567 42.4929C18.3872 42.6472 18.3525 42.8169 18.3525 43.0021V46.6597H16.9173ZM30.6278 46.7754C29.9873 46.7754 29.4202 46.6404 28.9263 46.3703C28.4402 46.1002 28.0582 45.7337 27.7804 45.2707C27.5104 44.8 27.3753 44.2638 27.3753 43.6619C27.3753 43.1835 27.4525 42.7475 27.6068 42.354C27.7612 41.9604 27.9733 41.6209 28.2434 41.3354C28.5212 41.0422 28.8492 40.8184 29.2272 40.6641C29.6131 40.5021 30.0336 40.421 30.4889 40.421C30.8901 40.421 31.2644 40.4982 31.6116 40.6525C31.9588 40.8068 32.2598 41.019 32.5144 41.2891C32.769 41.5515 32.9619 41.8678 33.0931 42.2382C33.232 42.6009 33.2976 42.9983 33.2899 43.4304L33.2783 43.9281H28.336L28.0698 42.9558H32.0861L31.901 43.1526V42.898C31.8778 42.6588 31.8006 42.4504 31.6695 42.2729C31.5383 42.0878 31.3685 41.945 31.1602 41.8447C30.9596 41.7367 30.7358 41.6826 30.4889 41.6826C30.1108 41.6826 29.7905 41.756 29.5282 41.9026C29.2735 42.0492 29.0806 42.2614 28.9495 42.5392C28.8183 42.8092 28.7527 43.1487 28.7527 43.5577C28.7527 43.9512 28.8337 44.2946 28.9958 44.5878C29.1655 44.8811 29.4009 45.1087 29.7018 45.2707C30.0105 45.4251 30.3693 45.5022 30.7782 45.5022C31.0637 45.5022 31.3261 45.4559 31.5653 45.3633C31.8045 45.2707 32.063 45.1048 32.3408 44.8656L33.0468 45.8495C32.8385 46.0424 32.5993 46.2083 32.3292 46.3472C32.0669 46.4783 31.7891 46.5825 31.4958 46.6597C31.2026 46.7368 30.9133 46.7754 30.6278 46.7754Z" fill="#8C8C8C"/>
</svg>
