<svg width="63" height="62" viewBox="0 0 63 62" fill="none" xmlns="http://www.w3.org/2000/svg">
<path d="M41.6875 39.875H36.0625C35.1994 39.875 34.5 39.1756 34.5 38.3125V32.6875C34.5 31.9969 33.9406 31.4375 33.25 31.4375H30.75C30.0594 31.4375 29.5 31.9969 29.5 32.6875V38.3125C29.5 39.1756 28.8006 39.875 27.9375 39.875H22.3125C21.4494 39.875 20.75 39.1756 20.75 38.3125V26.3831C20.75 24.9463 21.4088 23.5888 22.5369 22.7L31.4194 15.7006C31.76 15.4331 32.24 15.4331 32.58 15.7006L41.4637 22.7C42.5919 23.5888 43.25 24.9456 43.25 26.3819V38.3125C43.25 39.1756 42.5506 39.875 41.6875 39.875Z" fill="#388B40"/>
<path d="M21.2849 59.6597V51.5575H22.7896V59.6597H21.2849ZM16.088 59.6597V51.5575H17.5927V59.6597H16.088ZM16.713 56.3262V54.9141H22.0141V56.3262H16.713ZM27.5071 59.7754C26.8975 59.7754 26.3535 59.6404 25.8751 59.3703C25.3967 59.0925 25.0186 58.7144 24.7408 58.236C24.463 57.7576 24.3241 57.2136 24.3241 56.604C24.3241 55.9944 24.463 55.4504 24.7408 54.972C25.0186 54.4936 25.3967 54.1194 25.8751 53.8493C26.3535 53.5715 26.8975 53.4326 27.5071 53.4326C28.109 53.4326 28.6491 53.5715 29.1275 53.8493C29.606 54.1194 29.9802 54.4936 30.2503 54.972C30.5281 55.4504 30.6669 55.9944 30.6669 56.604C30.6669 57.2136 30.5281 57.7576 30.2503 58.236C29.9802 58.7144 29.606 59.0925 29.1275 59.3703C28.6491 59.6404 28.109 59.7754 27.5071 59.7754ZM27.5071 58.5138C27.8389 58.5138 28.1321 58.4289 28.3868 58.2592C28.6491 58.0894 28.8536 57.8618 29.0002 57.5763C29.1545 57.2908 29.2279 56.9667 29.2201 56.604C29.2279 56.2336 29.1545 55.9057 29.0002 55.6202C28.8536 55.3347 28.6491 55.1109 28.3868 54.9489C28.1321 54.7791 27.8389 54.6942 27.5071 54.6942C27.1753 54.6942 26.8744 54.7791 26.6043 54.9489C26.342 55.1109 26.1375 55.3385 25.9909 55.6318C25.8443 55.9173 25.7709 56.2413 25.7709 56.604C25.7709 56.9667 25.8443 57.2908 25.9909 57.5763C26.1375 57.8618 26.342 58.0894 26.6043 58.2592C26.8744 58.4289 27.1753 58.5138 27.5071 58.5138ZM31.9173 59.6597V53.5599H33.3178L33.3409 54.7868L33.1094 54.8794C33.1789 54.6788 33.283 54.4936 33.4219 54.3238C33.5608 54.1464 33.7267 53.9959 33.9196 53.8724C34.1126 53.7413 34.317 53.6409 34.5331 53.5715C34.7491 53.4943 34.9691 53.4558 35.1928 53.4558C35.5246 53.4558 35.8179 53.5098 36.0725 53.6178C36.3348 53.7181 36.5509 53.8802 36.7207 54.1039C36.8981 54.3277 37.0293 54.6132 37.1142 54.9604L36.8943 54.9141L36.9869 54.7289C37.0718 54.5438 37.1914 54.3779 37.3457 54.2312C37.5 54.0769 37.6736 53.9419 37.8665 53.8261C38.0594 53.7027 38.2601 53.6101 38.4684 53.5483C38.6845 53.4866 38.8967 53.4558 39.105 53.4558C39.568 53.4558 39.9538 53.5483 40.2625 53.7335C40.5711 53.9187 40.8026 54.2004 40.9569 54.5785C41.1112 54.9566 41.1884 55.4234 41.1884 55.979V59.6597H39.7532V56.0716C39.7532 55.7629 39.7107 55.5083 39.6259 55.3077C39.5487 55.107 39.4252 54.9604 39.2555 54.8678C39.0934 54.7675 38.8889 54.7174 38.642 54.7174C38.4491 54.7174 38.2639 54.7521 38.0865 54.8215C37.9167 54.8833 37.7701 54.9759 37.6466 55.0993C37.5232 55.2151 37.4267 55.3501 37.3573 55.5044C37.2878 55.6588 37.2531 55.8285 37.2531 56.0137V59.6597H35.8179V56.06C35.8179 55.7668 35.7754 55.5237 35.6905 55.3308C35.6057 55.1302 35.4822 54.9797 35.3202 54.8794C35.1581 54.7714 34.9613 54.7174 34.7299 54.7174C34.5369 54.7174 34.3556 54.7521 34.1859 54.8215C34.0161 54.8833 33.8695 54.972 33.746 55.0878C33.6226 55.2035 33.5261 55.3385 33.4567 55.4929C33.3872 55.6472 33.3525 55.8169 33.3525 56.0021V59.6597H31.9173ZM45.6278 59.7754C44.9873 59.7754 44.4202 59.6404 43.9263 59.3703C43.4402 59.1002 43.0582 58.7337 42.7804 58.2707C42.5104 57.8 42.3753 57.2638 42.3753 56.6619C42.3753 56.1835 42.4525 55.7475 42.6068 55.354C42.7612 54.9604 42.9733 54.6209 43.2434 54.3354C43.5212 54.0422 43.8492 53.8184 44.2272 53.6641C44.6131 53.5021 45.0336 53.421 45.4889 53.421C45.8901 53.421 46.2644 53.4982 46.6116 53.6525C46.9588 53.8068 47.2598 54.019 47.5144 54.2891C47.769 54.5515 47.9619 54.8678 48.0931 55.2382C48.232 55.6009 48.2976 55.9983 48.2899 56.4304L48.2783 56.9281H43.336L43.0698 55.9558H47.0861L46.901 56.1526V55.898C46.8778 55.6588 46.8006 55.4504 46.6695 55.2729C46.5383 55.0878 46.3685 54.945 46.1602 54.8447C45.9596 54.7367 45.7358 54.6826 45.4889 54.6826C45.1108 54.6826 44.7905 54.756 44.5282 54.9026C44.2735 55.0492 44.0806 55.2614 43.9495 55.5392C43.8183 55.8092 43.7527 56.1487 43.7527 56.5577C43.7527 56.9512 43.8337 57.2946 43.9958 57.5878C44.1655 57.8811 44.4009 58.1087 44.7018 58.2707C45.0105 58.4251 45.3693 58.5022 45.7782 58.5022C46.0637 58.5022 46.3261 58.4559 46.5653 58.3633C46.8045 58.2707 47.063 58.1048 47.3408 57.8656L48.0468 58.8495C47.8385 59.0424 47.5993 59.2083 47.3292 59.3472C47.0669 59.4783 46.7891 59.5825 46.4958 59.6597C46.2026 59.7368 45.9133 59.7754 45.6278 59.7754Z" fill="#388B40"/>
<path d="M0 0H63V0C63 2.20914 61.2091 4 59 4H4C1.79086 4 0 2.20914 0 0V0Z" fill="#388B40"/>
</svg>
