<svg width="39" height="49" viewBox="0 0 39 49" fill="none" xmlns="http://www.w3.org/2000/svg">
<path d="M1.91173 46.2354V38.1332H3.33539L6.28688 42.9366L5.45352 42.9251L8.43973 38.1332H9.79394V46.2354H8.30084V43.1913C8.30084 42.4968 8.31627 41.8718 8.34713 41.3162C8.38572 40.7606 8.44745 40.2089 8.53233 39.6611L8.71752 40.1588L6.20586 44.0362H5.44194L3.0113 40.1935L3.17335 39.6611C3.25823 40.178 3.3161 40.7105 3.34696 41.2583C3.38555 41.7985 3.40484 42.4428 3.40484 43.1913V46.2354H1.91173ZM14.5064 46.3511C13.8968 46.3511 13.3528 46.2161 12.8744 45.946C12.396 45.6682 12.0179 45.2901 11.7401 44.8117C11.4623 44.3333 11.3234 43.7893 11.3234 43.1797C11.3234 42.5701 11.4623 42.0261 11.7401 41.5477C12.0179 41.0693 12.396 40.695 12.8744 40.425C13.3528 40.1472 13.8968 40.0083 14.5064 40.0083C15.1083 40.0083 15.6484 40.1472 16.1268 40.425C16.6052 40.695 16.9795 41.0693 17.2495 41.5477C17.5273 42.0261 17.6662 42.5701 17.6662 43.1797C17.6662 43.7893 17.5273 44.3333 17.2495 44.8117C16.9795 45.2901 16.6052 45.6682 16.1268 45.946C15.6484 46.2161 15.1083 46.3511 14.5064 46.3511ZM14.5064 45.0895C14.8382 45.0895 15.1314 45.0046 15.386 44.8348C15.6484 44.6651 15.8529 44.4375 15.9995 44.1519C16.1538 43.8664 16.2271 43.5424 16.2194 43.1797C16.2271 42.8093 16.1538 42.4814 15.9995 42.1959C15.8529 41.9104 15.6484 41.6866 15.386 41.5245C15.1314 41.3548 14.8382 41.2699 14.5064 41.2699C14.1746 41.2699 13.8736 41.3548 13.6036 41.5245C13.3412 41.6866 13.1367 41.9142 12.9901 42.2074C12.8435 42.4929 12.7702 42.817 12.7702 43.1797C12.7702 43.5424 12.8435 43.8664 12.9901 44.1519C13.1367 44.4375 13.3412 44.6651 13.6036 44.8348C13.8736 45.0046 14.1746 45.0895 14.5064 45.0895ZM18.9397 46.2354V40.1356H20.3286L20.3518 41.3856L20.0855 41.5245C20.1627 41.2468 20.3132 40.996 20.5369 40.7722C20.7607 40.5407 21.0269 40.3555 21.3356 40.2166C21.6442 40.0777 21.9606 40.0083 22.2847 40.0083C22.7477 40.0083 23.1335 40.1009 23.4421 40.2861C23.7585 40.4713 23.9939 40.7491 24.1482 41.1194C24.3102 41.4898 24.3912 41.9528 24.3912 42.5084V46.2354H22.9676V42.6125C22.9676 42.3039 22.9251 42.0493 22.8403 41.8486C22.7554 41.6403 22.6242 41.4898 22.4467 41.3972C22.2693 41.2969 22.0532 41.2506 21.7986 41.2583C21.5902 41.2583 21.3973 41.2931 21.2198 41.3625C21.0501 41.4242 20.8996 41.5168 20.7684 41.6403C20.645 41.756 20.5447 41.8911 20.4675 42.0454C20.3981 42.1997 20.3633 42.3695 20.3633 42.5547V46.2354H19.6573C19.5184 46.2354 19.3872 46.2354 19.2638 46.2354C19.148 46.2354 19.04 46.2354 18.9397 46.2354ZM28.8518 46.3511C28.2113 46.3511 27.6442 46.2161 27.1503 45.946C26.6642 45.6759 26.2822 45.3094 26.0044 44.8464C25.7344 44.3757 25.5993 43.8394 25.5993 43.2376C25.5993 42.7592 25.6765 42.3232 25.8308 41.9296C25.9851 41.5361 26.1973 41.1966 26.4674 40.9111C26.7452 40.6179 27.0731 40.3941 27.4512 40.2398C27.8371 40.0777 28.2576 39.9967 28.7129 39.9967C29.1141 39.9967 29.4884 40.0739 29.8356 40.2282C30.1828 40.3825 30.4838 40.5947 30.7384 40.8648C30.993 41.1272 31.1859 41.4435 31.3171 41.8139C31.456 42.1766 31.5216 42.574 31.5139 43.0061L31.5023 43.5038H26.56L26.2938 42.5315H30.3101L30.1249 42.7283V42.4736C30.1018 42.2344 30.0246 42.0261 29.8935 41.8486C29.7623 41.6634 29.5925 41.5207 29.3842 41.4204C29.1836 41.3123 28.9598 41.2583 28.7129 41.2583C28.3348 41.2583 28.0145 41.3316 27.7522 41.4782C27.4975 41.6249 27.3046 41.8371 27.1735 42.1148C27.0423 42.3849 26.9767 42.7244 26.9767 43.1334C26.9767 43.5269 27.0577 43.8703 27.2198 44.1635C27.3895 44.4567 27.6249 44.6844 27.9258 44.8464C28.2345 45.0007 28.5933 45.0779 29.0022 45.0779C29.2877 45.0779 29.5501 45.0316 29.7893 44.939C30.0285 44.8464 30.287 44.6805 30.5648 44.4413L31.2708 45.4251C31.0625 45.618 30.8233 45.7839 30.5532 45.9228C30.2908 46.054 30.0131 46.1582 29.7198 46.2354C29.4266 46.3125 29.1373 46.3511 28.8518 46.3511ZM33.5877 48.8975L34.884 45.8997L34.8956 46.8488L31.8863 40.1356H33.5298L35.2081 44.1172C35.2621 44.2175 35.3162 44.3526 35.3702 44.5223C35.4242 44.6844 35.4705 44.8464 35.5091 45.0085L35.2197 45.1011C35.2737 44.9544 35.3316 44.8001 35.3933 44.6381C35.4551 44.4683 35.5129 44.2947 35.5669 44.1172L37.0022 40.1356H38.6573L36.1109 46.2354L35.0692 48.8975H33.5877Z" fill="#8C8C8C"/>
<mask id="path-2-outside-1_51_17" maskUnits="userSpaceOnUse" x="5" y="0" width="29" height="29" fill="black">
<rect fill="white" x="5" width="29" height="29"/>
<path d="M19.8235 1C12.2023 1 6 7.20048 6 14.8235C6 22.4466 12.2023 28.6471 19.8235 28.6471C27.4447 28.6471 33.6471 22.4466 33.6471 14.8235C33.6471 7.20048 27.4447 1 19.8235 1ZM19.8235 1.95335C26.9196 1.95335 32.6937 7.72743 32.6937 14.8235C32.6937 21.9196 26.9196 27.6937 19.8235 27.6937C12.7274 27.6937 6.95335 21.9196 6.95335 14.8235C6.95335 7.72743 12.7274 1.95335 19.8235 1.95335ZM19.615 3.86377C16.8071 3.91962 14.0848 5.05731 12.0701 7.07014C7.79684 11.3453 7.79684 18.2999 12.0701 22.5751C12.1632 22.6682 12.2861 22.7147 12.4072 22.7147C12.5301 22.7147 12.6529 22.6682 12.746 22.5751C12.9322 22.3889 12.9322 22.0872 12.746 21.901C8.84142 17.9982 8.84328 11.6488 12.746 7.74605C15.0084 5.48185 18.2501 4.43168 21.4155 4.94C21.6744 4.98283 21.9201 4.80408 21.9611 4.54526C22.0039 4.28458 21.8252 4.03879 21.5664 3.99783C20.9165 3.89356 20.263 3.84887 19.615 3.86377ZM23.4749 4.52105C23.2887 4.5285 23.1174 4.64581 23.0485 4.83015C22.9554 5.07779 23.0802 5.35151 23.3278 5.44461C23.6686 5.57122 24.0037 5.71832 24.3296 5.88032C24.3985 5.91569 24.4711 5.93245 24.5437 5.93245C24.7169 5.93245 24.8845 5.83749 24.9701 5.66991C25.0874 5.4353 24.9925 5.14855 24.7578 5.02938C24.4041 4.85063 24.0335 4.6905 23.6611 4.55084C23.5997 4.5285 23.5364 4.51919 23.4749 4.52105ZM26.227 6.08886C26.1059 6.10376 25.9905 6.16334 25.9086 6.26761C25.7466 6.4743 25.7819 6.77408 25.9905 6.93607C26.3089 7.18558 26.6143 7.45744 26.901 7.74605C30.8056 11.6488 30.8056 17.9982 26.901 21.901C26.7148 22.0891 26.7148 22.3889 26.901 22.5769C26.9941 22.6682 27.117 22.7166 27.2399 22.7166C27.3609 22.7166 27.4838 22.6682 27.5769 22.5769C31.8502 18.3018 31.8502 11.3453 27.5769 7.07014C27.2622 6.75732 26.9271 6.4594 26.5789 6.18569C26.4746 6.10562 26.3461 6.07397 26.227 6.08886ZM16.4868 9.58012C16.2224 9.58012 16.0101 9.79425 16.0101 10.0568C16.0101 10.3193 16.2224 10.5335 16.4868 10.5335H18.3935C19.7081 10.5335 20.7769 11.6023 20.7769 12.9168C20.7769 14.2314 19.7081 15.3002 18.3935 15.3002H17.4402C17.2558 15.3002 17.0901 15.4045 17.01 15.5702C16.9318 15.7359 16.9542 15.9314 17.0678 16.0748L20.8811 20.8415C20.9761 20.9588 21.1139 21.0203 21.2535 21.0203C21.3597 21.0203 21.464 20.9868 21.5515 20.916C21.7563 20.7522 21.7898 20.4524 21.626 20.2457L18.4307 16.2535C20.0917 16.2349 21.4621 14.9948 21.693 13.3935H23.1602C23.4246 13.3935 23.6369 13.1794 23.6369 12.9168C23.6369 12.6543 23.4246 12.4402 23.1602 12.4402H21.693C21.585 11.6972 21.2349 11.0343 20.7247 10.5335H23.1602C23.4246 10.5335 23.6369 10.3193 23.6369 10.0568C23.6369 9.79425 23.4246 9.58012 23.1602 9.58012H16.4868ZM16.4868 12.4402C16.2224 12.4402 16.0101 12.6543 16.0101 12.9168C16.0101 13.1794 16.2224 13.3935 16.4868 13.3935H19.3469C19.6113 13.3935 19.8235 13.1794 19.8235 12.9168C19.8235 12.6543 19.6113 12.4402 19.3469 12.4402H16.4868ZM15.2355 22.6384C15.0493 22.616 14.8613 22.7017 14.7645 22.873L14.2878 23.6997C14.1556 23.9269 14.2338 24.2173 14.461 24.3495C14.5354 24.3924 14.6174 24.4147 14.6993 24.4147C14.8631 24.4147 15.0233 24.3291 15.1108 24.1764L15.5875 23.3497C15.7197 23.1225 15.6433 22.8302 15.4143 22.698C15.3566 22.6663 15.297 22.6458 15.2355 22.6384ZM24.4115 22.6384C24.3501 22.6458 24.2886 22.6663 24.2328 22.698C24.0037 22.8302 23.9274 23.1225 24.0596 23.3515L24.5363 24.1764C24.6238 24.3291 24.7839 24.4147 24.9478 24.4147C25.0297 24.4147 25.1116 24.3942 25.1861 24.3495C25.4151 24.2192 25.4915 23.9269 25.3593 23.6997L24.8826 22.8748C24.7839 22.7035 24.5958 22.616 24.4115 22.6384ZM22.2963 23.5675C22.2348 23.5582 22.1697 23.5619 22.1045 23.5805C21.8513 23.6476 21.7004 23.9101 21.7675 24.1633L22.0151 25.085C22.0728 25.2973 22.2646 25.4388 22.475 25.4388C22.5179 25.4388 22.5588 25.4332 22.5998 25.4221C22.853 25.3532 23.0057 25.0925 22.9368 24.8393L22.691 23.9176C22.6389 23.7258 22.4787 23.5936 22.2963 23.5675ZM17.3526 23.5675C17.1683 23.5936 17.0082 23.7258 16.956 23.9176L16.7103 24.8393C16.6414 25.0925 16.794 25.3532 17.0473 25.4221C17.0882 25.4332 17.1292 25.4388 17.172 25.4388C17.3806 25.4388 17.5742 25.2973 17.6319 25.085L17.8796 24.1633C17.9466 23.9101 17.7958 23.6476 17.5426 23.5805C17.4793 23.5619 17.4141 23.5601 17.3526 23.5675ZM19.8235 23.8803C19.5591 23.8803 19.3469 24.0945 19.3469 24.357V25.3103C19.3469 25.5729 19.5591 25.787 19.8235 25.787C20.0879 25.787 20.3002 25.5729 20.3002 25.3103V24.357C20.3002 24.0945 20.0879 23.8803 19.8235 23.8803Z"/>
</mask>
<path d="M19.8235 1C12.2023 1 6 7.20048 6 14.8235C6 22.4466 12.2023 28.6471 19.8235 28.6471C27.4447 28.6471 33.6471 22.4466 33.6471 14.8235C33.6471 7.20048 27.4447 1 19.8235 1ZM19.8235 1.95335C26.9196 1.95335 32.6937 7.72743 32.6937 14.8235C32.6937 21.9196 26.9196 27.6937 19.8235 27.6937C12.7274 27.6937 6.95335 21.9196 6.95335 14.8235C6.95335 7.72743 12.7274 1.95335 19.8235 1.95335ZM19.615 3.86377C16.8071 3.91962 14.0848 5.05731 12.0701 7.07014C7.79684 11.3453 7.79684 18.2999 12.0701 22.5751C12.1632 22.6682 12.2861 22.7147 12.4072 22.7147C12.5301 22.7147 12.6529 22.6682 12.746 22.5751C12.9322 22.3889 12.9322 22.0872 12.746 21.901C8.84142 17.9982 8.84328 11.6488 12.746 7.74605C15.0084 5.48185 18.2501 4.43168 21.4155 4.94C21.6744 4.98283 21.9201 4.80408 21.9611 4.54526C22.0039 4.28458 21.8252 4.03879 21.5664 3.99783C20.9165 3.89356 20.263 3.84887 19.615 3.86377ZM23.4749 4.52105C23.2887 4.5285 23.1174 4.64581 23.0485 4.83015C22.9554 5.07779 23.0802 5.35151 23.3278 5.44461C23.6686 5.57122 24.0037 5.71832 24.3296 5.88032C24.3985 5.91569 24.4711 5.93245 24.5437 5.93245C24.7169 5.93245 24.8845 5.83749 24.9701 5.66991C25.0874 5.4353 24.9925 5.14855 24.7578 5.02938C24.4041 4.85063 24.0335 4.6905 23.6611 4.55084C23.5997 4.5285 23.5364 4.51919 23.4749 4.52105ZM26.227 6.08886C26.1059 6.10376 25.9905 6.16334 25.9086 6.26761C25.7466 6.4743 25.7819 6.77408 25.9905 6.93607C26.3089 7.18558 26.6143 7.45744 26.901 7.74605C30.8056 11.6488 30.8056 17.9982 26.901 21.901C26.7148 22.0891 26.7148 22.3889 26.901 22.5769C26.9941 22.6682 27.117 22.7166 27.2399 22.7166C27.3609 22.7166 27.4838 22.6682 27.5769 22.5769C31.8502 18.3018 31.8502 11.3453 27.5769 7.07014C27.2622 6.75732 26.9271 6.4594 26.5789 6.18569C26.4746 6.10562 26.3461 6.07397 26.227 6.08886ZM16.4868 9.58012C16.2224 9.58012 16.0101 9.79425 16.0101 10.0568C16.0101 10.3193 16.2224 10.5335 16.4868 10.5335H18.3935C19.7081 10.5335 20.7769 11.6023 20.7769 12.9168C20.7769 14.2314 19.7081 15.3002 18.3935 15.3002H17.4402C17.2558 15.3002 17.0901 15.4045 17.01 15.5702C16.9318 15.7359 16.9542 15.9314 17.0678 16.0748L20.8811 20.8415C20.9761 20.9588 21.1139 21.0203 21.2535 21.0203C21.3597 21.0203 21.464 20.9868 21.5515 20.916C21.7563 20.7522 21.7898 20.4524 21.626 20.2457L18.4307 16.2535C20.0917 16.2349 21.4621 14.9948 21.693 13.3935H23.1602C23.4246 13.3935 23.6369 13.1794 23.6369 12.9168C23.6369 12.6543 23.4246 12.4402 23.1602 12.4402H21.693C21.585 11.6972 21.2349 11.0343 20.7247 10.5335H23.1602C23.4246 10.5335 23.6369 10.3193 23.6369 10.0568C23.6369 9.79425 23.4246 9.58012 23.1602 9.58012H16.4868ZM16.4868 12.4402C16.2224 12.4402 16.0101 12.6543 16.0101 12.9168C16.0101 13.1794 16.2224 13.3935 16.4868 13.3935H19.3469C19.6113 13.3935 19.8235 13.1794 19.8235 12.9168C19.8235 12.6543 19.6113 12.4402 19.3469 12.4402H16.4868ZM15.2355 22.6384C15.0493 22.616 14.8613 22.7017 14.7645 22.873L14.2878 23.6997C14.1556 23.9269 14.2338 24.2173 14.461 24.3495C14.5354 24.3924 14.6174 24.4147 14.6993 24.4147C14.8631 24.4147 15.0233 24.3291 15.1108 24.1764L15.5875 23.3497C15.7197 23.1225 15.6433 22.8302 15.4143 22.698C15.3566 22.6663 15.297 22.6458 15.2355 22.6384ZM24.4115 22.6384C24.3501 22.6458 24.2886 22.6663 24.2328 22.698C24.0037 22.8302 23.9274 23.1225 24.0596 23.3515L24.5363 24.1764C24.6238 24.3291 24.7839 24.4147 24.9478 24.4147C25.0297 24.4147 25.1116 24.3942 25.1861 24.3495C25.4151 24.2192 25.4915 23.9269 25.3593 23.6997L24.8826 22.8748C24.7839 22.7035 24.5958 22.616 24.4115 22.6384ZM22.2963 23.5675C22.2348 23.5582 22.1697 23.5619 22.1045 23.5805C21.8513 23.6476 21.7004 23.9101 21.7675 24.1633L22.0151 25.085C22.0728 25.2973 22.2646 25.4388 22.475 25.4388C22.5179 25.4388 22.5588 25.4332 22.5998 25.4221C22.853 25.3532 23.0057 25.0925 22.9368 24.8393L22.691 23.9176C22.6389 23.7258 22.4787 23.5936 22.2963 23.5675ZM17.3526 23.5675C17.1683 23.5936 17.0082 23.7258 16.956 23.9176L16.7103 24.8393C16.6414 25.0925 16.794 25.3532 17.0473 25.4221C17.0882 25.4332 17.1292 25.4388 17.172 25.4388C17.3806 25.4388 17.5742 25.2973 17.6319 25.085L17.8796 24.1633C17.9466 23.9101 17.7958 23.6476 17.5426 23.5805C17.4793 23.5619 17.4141 23.5601 17.3526 23.5675ZM19.8235 23.8803C19.5591 23.8803 19.3469 24.0945 19.3469 24.357V25.3103C19.3469 25.5729 19.5591 25.787 19.8235 25.787C20.0879 25.787 20.3002 25.5729 20.3002 25.3103V24.357C20.3002 24.0945 20.0879 23.8803 19.8235 23.8803Z" fill="#8C8C8C"/>
<path d="M19.8235 1C12.2023 1 6 7.20048 6 14.8235C6 22.4466 12.2023 28.6471 19.8235 28.6471C27.4447 28.6471 33.6471 22.4466 33.6471 14.8235C33.6471 7.20048 27.4447 1 19.8235 1ZM19.8235 1.95335C26.9196 1.95335 32.6937 7.72743 32.6937 14.8235C32.6937 21.9196 26.9196 27.6937 19.8235 27.6937C12.7274 27.6937 6.95335 21.9196 6.95335 14.8235C6.95335 7.72743 12.7274 1.95335 19.8235 1.95335ZM19.615 3.86377C16.8071 3.91962 14.0848 5.05731 12.0701 7.07014C7.79684 11.3453 7.79684 18.2999 12.0701 22.5751C12.1632 22.6682 12.2861 22.7147 12.4072 22.7147C12.5301 22.7147 12.6529 22.6682 12.746 22.5751C12.9322 22.3889 12.9322 22.0872 12.746 21.901C8.84142 17.9982 8.84328 11.6488 12.746 7.74605C15.0084 5.48185 18.2501 4.43168 21.4155 4.94C21.6744 4.98283 21.9201 4.80408 21.9611 4.54526C22.0039 4.28458 21.8252 4.03879 21.5664 3.99783C20.9165 3.89356 20.263 3.84887 19.615 3.86377ZM23.4749 4.52105C23.2887 4.5285 23.1174 4.64581 23.0485 4.83015C22.9554 5.07779 23.0802 5.35151 23.3278 5.44461C23.6686 5.57122 24.0037 5.71832 24.3296 5.88032C24.3985 5.91569 24.4711 5.93245 24.5437 5.93245C24.7169 5.93245 24.8845 5.83749 24.9701 5.66991C25.0874 5.4353 24.9925 5.14855 24.7578 5.02938C24.4041 4.85063 24.0335 4.6905 23.6611 4.55084C23.5997 4.5285 23.5364 4.51919 23.4749 4.52105ZM26.227 6.08886C26.1059 6.10376 25.9905 6.16334 25.9086 6.26761C25.7466 6.4743 25.7819 6.77408 25.9905 6.93607C26.3089 7.18558 26.6143 7.45744 26.901 7.74605C30.8056 11.6488 30.8056 17.9982 26.901 21.901C26.7148 22.0891 26.7148 22.3889 26.901 22.5769C26.9941 22.6682 27.117 22.7166 27.2399 22.7166C27.3609 22.7166 27.4838 22.6682 27.5769 22.5769C31.8502 18.3018 31.8502 11.3453 27.5769 7.07014C27.2622 6.75732 26.9271 6.4594 26.5789 6.18569C26.4746 6.10562 26.3461 6.07397 26.227 6.08886ZM16.4868 9.58012C16.2224 9.58012 16.0101 9.79425 16.0101 10.0568C16.0101 10.3193 16.2224 10.5335 16.4868 10.5335H18.3935C19.7081 10.5335 20.7769 11.6023 20.7769 12.9168C20.7769 14.2314 19.7081 15.3002 18.3935 15.3002H17.4402C17.2558 15.3002 17.0901 15.4045 17.01 15.5702C16.9318 15.7359 16.9542 15.9314 17.0678 16.0748L20.8811 20.8415C20.9761 20.9588 21.1139 21.0203 21.2535 21.0203C21.3597 21.0203 21.464 20.9868 21.5515 20.916C21.7563 20.7522 21.7898 20.4524 21.626 20.2457L18.4307 16.2535C20.0917 16.2349 21.4621 14.9948 21.693 13.3935H23.1602C23.4246 13.3935 23.6369 13.1794 23.6369 12.9168C23.6369 12.6543 23.4246 12.4402 23.1602 12.4402H21.693C21.585 11.6972 21.2349 11.0343 20.7247 10.5335H23.1602C23.4246 10.5335 23.6369 10.3193 23.6369 10.0568C23.6369 9.79425 23.4246 9.58012 23.1602 9.58012H16.4868ZM16.4868 12.4402C16.2224 12.4402 16.0101 12.6543 16.0101 12.9168C16.0101 13.1794 16.2224 13.3935 16.4868 13.3935H19.3469C19.6113 13.3935 19.8235 13.1794 19.8235 12.9168C19.8235 12.6543 19.6113 12.4402 19.3469 12.4402H16.4868ZM15.2355 22.6384C15.0493 22.616 14.8613 22.7017 14.7645 22.873L14.2878 23.6997C14.1556 23.9269 14.2338 24.2173 14.461 24.3495C14.5354 24.3924 14.6174 24.4147 14.6993 24.4147C14.8631 24.4147 15.0233 24.3291 15.1108 24.1764L15.5875 23.3497C15.7197 23.1225 15.6433 22.8302 15.4143 22.698C15.3566 22.6663 15.297 22.6458 15.2355 22.6384ZM24.4115 22.6384C24.3501 22.6458 24.2886 22.6663 24.2328 22.698C24.0037 22.8302 23.9274 23.1225 24.0596 23.3515L24.5363 24.1764C24.6238 24.3291 24.7839 24.4147 24.9478 24.4147C25.0297 24.4147 25.1116 24.3942 25.1861 24.3495C25.4151 24.2192 25.4915 23.9269 25.3593 23.6997L24.8826 22.8748C24.7839 22.7035 24.5958 22.616 24.4115 22.6384ZM22.2963 23.5675C22.2348 23.5582 22.1697 23.5619 22.1045 23.5805C21.8513 23.6476 21.7004 23.9101 21.7675 24.1633L22.0151 25.085C22.0728 25.2973 22.2646 25.4388 22.475 25.4388C22.5179 25.4388 22.5588 25.4332 22.5998 25.4221C22.853 25.3532 23.0057 25.0925 22.9368 24.8393L22.691 23.9176C22.6389 23.7258 22.4787 23.5936 22.2963 23.5675ZM17.3526 23.5675C17.1683 23.5936 17.0082 23.7258 16.956 23.9176L16.7103 24.8393C16.6414 25.0925 16.794 25.3532 17.0473 25.4221C17.0882 25.4332 17.1292 25.4388 17.172 25.4388C17.3806 25.4388 17.5742 25.2973 17.6319 25.085L17.8796 24.1633C17.9466 23.9101 17.7958 23.6476 17.5426 23.5805C17.4793 23.5619 17.4141 23.5601 17.3526 23.5675ZM19.8235 23.8803C19.5591 23.8803 19.3469 24.0945 19.3469 24.357V25.3103C19.3469 25.5729 19.5591 25.787 19.8235 25.787C20.0879 25.787 20.3002 25.5729 20.3002 25.3103V24.357C20.3002 24.0945 20.0879 23.8803 19.8235 23.8803Z" stroke="#8C8C8C" stroke-width="0.4" mask="url(#path-2-outside-1_51_17)"/>
</svg>
