<svg width="63" height="63" viewBox="0 0 63 63" fill="none" xmlns="http://www.w3.org/2000/svg">
<mask id="path-1-outside-1_51_22" maskUnits="userSpaceOnUse" x="16.1763" y="13.7646" width="29" height="29" fill="black">
<rect fill="white" x="16.1763" y="13.7646" width="29" height="29"/>
<path d="M30.9998 14.7646C23.3786 14.7646 17.1763 20.9651 17.1763 28.5882C17.1763 36.2112 23.3786 42.4117 30.9998 42.4117C38.621 42.4117 44.8233 36.2112 44.8233 28.5882C44.8233 20.9651 38.621 14.7646 30.9998 14.7646ZM30.9998 15.718C38.0959 15.718 43.87 21.4921 43.87 28.5882C43.87 35.6843 38.0959 41.4584 30.9998 41.4584C23.9037 41.4584 18.1296 35.6843 18.1296 28.5882C18.1296 21.4921 23.9037 15.718 30.9998 15.718ZM30.7913 17.6284C27.9833 17.6843 25.2611 18.822 23.2464 20.8348C18.9731 25.11 18.9731 32.0645 23.2464 36.3397C23.3395 36.4328 23.4624 36.4794 23.5834 36.4794C23.7063 36.4794 23.8292 36.4328 23.9223 36.3397C24.1085 36.1535 24.1085 35.8519 23.9223 35.6657C20.0177 31.7629 20.0196 25.4135 23.9223 21.5107C26.1847 19.2465 29.4264 18.1963 32.5918 18.7047C32.8506 18.7475 33.0964 18.5687 33.1374 18.3099C33.1802 18.0492 33.0015 17.8034 32.7426 17.7625C32.0928 17.6582 31.4392 17.6135 30.7913 17.6284ZM34.6512 18.2857C34.465 18.2931 34.2937 18.4105 34.2248 18.5948C34.1317 18.8424 34.2564 19.1162 34.5041 19.2093C34.8448 19.3359 35.18 19.483 35.5059 19.645C35.5747 19.6803 35.6474 19.6971 35.72 19.6971C35.8931 19.6971 36.0607 19.6021 36.1464 19.4346C36.2637 19.1999 36.1687 18.9132 35.9341 18.794C35.5803 18.6153 35.2098 18.4551 34.8374 18.3155C34.7759 18.2931 34.7126 18.2838 34.6512 18.2857ZM37.4032 19.8535C37.2822 19.8684 37.1668 19.928 37.0848 20.0323C36.9228 20.2389 36.9582 20.5387 37.1668 20.7007C37.4852 20.9502 37.7905 21.2221 38.0773 21.5107C41.9819 25.4135 41.9819 31.7629 38.0773 35.6657C37.8911 35.8537 37.8911 36.1535 38.0773 36.3416C38.1704 36.4328 38.2933 36.4812 38.4162 36.4812C38.5372 36.4812 38.6601 36.4328 38.7532 36.3416C43.0265 32.0664 43.0265 25.11 38.7532 20.8348C38.4385 20.522 38.1034 20.224 37.7552 19.9503C37.6509 19.8703 37.5224 19.8386 37.4032 19.8535ZM27.6631 23.3448C27.3987 23.3448 27.1864 23.5589 27.1864 23.8214C27.1864 24.084 27.3987 24.2981 27.6631 24.2981H29.5698C30.8844 24.2981 31.9531 25.3669 31.9531 26.6815C31.9531 27.9961 30.8844 29.0649 29.5698 29.0649H28.6164C28.4321 29.0649 28.2664 29.1691 28.1863 29.3348C28.1081 29.5006 28.1304 29.6961 28.244 29.8394L32.0574 34.6062C32.1524 34.7235 32.2902 34.7849 32.4298 34.7849C32.536 34.7849 32.6402 34.7514 32.7277 34.6807C32.9326 34.5168 32.9661 34.217 32.8022 34.0103L29.607 30.0182C31.2679 29.9996 32.6384 28.7595 32.8693 27.1582H34.3365C34.6009 27.1582 34.8132 26.944 34.8132 26.6815C34.8132 26.4189 34.6009 26.2048 34.3365 26.2048H32.8693C32.7613 25.4619 32.4112 24.799 31.901 24.2981H34.3365C34.6009 24.2981 34.8132 24.084 34.8132 23.8214C34.8132 23.5589 34.6009 23.3448 34.3365 23.3448H27.6631ZM27.6631 26.2048C27.3987 26.2048 27.1864 26.4189 27.1864 26.6815C27.1864 26.944 27.3987 27.1582 27.6631 27.1582H30.5231C30.7875 27.1582 30.9998 26.944 30.9998 26.6815C30.9998 26.4189 30.7875 26.2048 30.5231 26.2048H27.6631ZM26.4118 36.403C26.2256 36.3807 26.0376 36.4663 25.9407 36.6376L25.4641 37.4644C25.3319 37.6915 25.4101 37.982 25.6372 38.1142C25.7117 38.157 25.7936 38.1794 25.8756 38.1794C26.0394 38.1794 26.1995 38.0937 26.2871 37.941L26.7637 37.1143C26.8959 36.8871 26.8196 36.5948 26.5906 36.4626C26.5328 36.4309 26.4733 36.4105 26.4118 36.403ZM35.5878 36.403C35.5263 36.4105 35.4649 36.4309 35.409 36.4626C35.18 36.5948 35.1037 36.8871 35.2359 37.1162L35.7125 37.941C35.8 38.0937 35.9602 38.1794 36.124 38.1794C36.206 38.1794 36.2879 38.1589 36.3624 38.1142C36.5914 37.9839 36.6677 37.6915 36.5355 37.4644L36.0589 36.6395C35.9602 36.4682 35.7721 36.3807 35.5878 36.403ZM33.4725 37.3322C33.4111 37.3228 33.3459 37.3266 33.2808 37.3452C33.0275 37.4122 32.8767 37.6748 32.9437 37.928L33.1914 38.8497C33.2491 39.062 33.4409 39.2035 33.6513 39.2035C33.6941 39.2035 33.7351 39.1979 33.776 39.1867C34.0293 39.1178 34.182 38.8571 34.1131 38.6039L33.8673 37.6822C33.8152 37.4904 33.655 37.3582 33.4725 37.3322ZM28.5289 37.3322C28.3446 37.3582 28.1844 37.4904 28.1323 37.6822L27.8865 38.6039C27.8176 38.8571 27.9703 39.1178 28.2235 39.1867C28.2645 39.1979 28.3055 39.2035 28.3483 39.2035C28.5568 39.2035 28.7505 39.062 28.8082 38.8497L29.0559 37.928C29.1229 37.6748 28.9721 37.4122 28.7188 37.3452C28.6555 37.3266 28.5904 37.3247 28.5289 37.3322ZM30.9998 37.645C30.7354 37.645 30.5231 37.8591 30.5231 38.1216V39.075C30.5231 39.3375 30.7354 39.5517 30.9998 39.5517C31.2642 39.5517 31.4765 39.3375 31.4765 39.075V38.1216C31.4765 37.8591 31.2642 37.645 30.9998 37.645Z"/>
</mask>
<path d="M30.9998 14.7646C23.3786 14.7646 17.1763 20.9651 17.1763 28.5882C17.1763 36.2112 23.3786 42.4117 30.9998 42.4117C38.621 42.4117 44.8233 36.2112 44.8233 28.5882C44.8233 20.9651 38.621 14.7646 30.9998 14.7646ZM30.9998 15.718C38.0959 15.718 43.87 21.4921 43.87 28.5882C43.87 35.6843 38.0959 41.4584 30.9998 41.4584C23.9037 41.4584 18.1296 35.6843 18.1296 28.5882C18.1296 21.4921 23.9037 15.718 30.9998 15.718ZM30.7913 17.6284C27.9833 17.6843 25.2611 18.822 23.2464 20.8348C18.9731 25.11 18.9731 32.0645 23.2464 36.3397C23.3395 36.4328 23.4624 36.4794 23.5834 36.4794C23.7063 36.4794 23.8292 36.4328 23.9223 36.3397C24.1085 36.1535 24.1085 35.8519 23.9223 35.6657C20.0177 31.7629 20.0196 25.4135 23.9223 21.5107C26.1847 19.2465 29.4264 18.1963 32.5918 18.7047C32.8506 18.7475 33.0964 18.5687 33.1374 18.3099C33.1802 18.0492 33.0015 17.8034 32.7426 17.7625C32.0928 17.6582 31.4392 17.6135 30.7913 17.6284ZM34.6512 18.2857C34.465 18.2931 34.2937 18.4105 34.2248 18.5948C34.1317 18.8424 34.2564 19.1162 34.5041 19.2093C34.8448 19.3359 35.18 19.483 35.5059 19.645C35.5747 19.6803 35.6474 19.6971 35.72 19.6971C35.8931 19.6971 36.0607 19.6021 36.1464 19.4346C36.2637 19.1999 36.1687 18.9132 35.9341 18.794C35.5803 18.6153 35.2098 18.4551 34.8374 18.3155C34.7759 18.2931 34.7126 18.2838 34.6512 18.2857ZM37.4032 19.8535C37.2822 19.8684 37.1668 19.928 37.0848 20.0323C36.9228 20.2389 36.9582 20.5387 37.1668 20.7007C37.4852 20.9502 37.7905 21.2221 38.0773 21.5107C41.9819 25.4135 41.9819 31.7629 38.0773 35.6657C37.8911 35.8537 37.8911 36.1535 38.0773 36.3416C38.1704 36.4328 38.2933 36.4812 38.4162 36.4812C38.5372 36.4812 38.6601 36.4328 38.7532 36.3416C43.0265 32.0664 43.0265 25.11 38.7532 20.8348C38.4385 20.522 38.1034 20.224 37.7552 19.9503C37.6509 19.8703 37.5224 19.8386 37.4032 19.8535ZM27.6631 23.3448C27.3987 23.3448 27.1864 23.5589 27.1864 23.8214C27.1864 24.084 27.3987 24.2981 27.6631 24.2981H29.5698C30.8844 24.2981 31.9531 25.3669 31.9531 26.6815C31.9531 27.9961 30.8844 29.0649 29.5698 29.0649H28.6164C28.4321 29.0649 28.2664 29.1691 28.1863 29.3348C28.1081 29.5006 28.1304 29.6961 28.244 29.8394L32.0574 34.6062C32.1524 34.7235 32.2902 34.7849 32.4298 34.7849C32.536 34.7849 32.6402 34.7514 32.7277 34.6807C32.9326 34.5168 32.9661 34.217 32.8022 34.0103L29.607 30.0182C31.2679 29.9996 32.6384 28.7595 32.8693 27.1582H34.3365C34.6009 27.1582 34.8132 26.944 34.8132 26.6815C34.8132 26.4189 34.6009 26.2048 34.3365 26.2048H32.8693C32.7613 25.4619 32.4112 24.799 31.901 24.2981H34.3365C34.6009 24.2981 34.8132 24.084 34.8132 23.8214C34.8132 23.5589 34.6009 23.3448 34.3365 23.3448H27.6631ZM27.6631 26.2048C27.3987 26.2048 27.1864 26.4189 27.1864 26.6815C27.1864 26.944 27.3987 27.1582 27.6631 27.1582H30.5231C30.7875 27.1582 30.9998 26.944 30.9998 26.6815C30.9998 26.4189 30.7875 26.2048 30.5231 26.2048H27.6631ZM26.4118 36.403C26.2256 36.3807 26.0376 36.4663 25.9407 36.6376L25.4641 37.4644C25.3319 37.6915 25.4101 37.982 25.6372 38.1142C25.7117 38.157 25.7936 38.1794 25.8756 38.1794C26.0394 38.1794 26.1995 38.0937 26.2871 37.941L26.7637 37.1143C26.8959 36.8871 26.8196 36.5948 26.5906 36.4626C26.5328 36.4309 26.4733 36.4105 26.4118 36.403ZM35.5878 36.403C35.5263 36.4105 35.4649 36.4309 35.409 36.4626C35.18 36.5948 35.1037 36.8871 35.2359 37.1162L35.7125 37.941C35.8 38.0937 35.9602 38.1794 36.124 38.1794C36.206 38.1794 36.2879 38.1589 36.3624 38.1142C36.5914 37.9839 36.6677 37.6915 36.5355 37.4644L36.0589 36.6395C35.9602 36.4682 35.7721 36.3807 35.5878 36.403ZM33.4725 37.3322C33.4111 37.3228 33.3459 37.3266 33.2808 37.3452C33.0275 37.4122 32.8767 37.6748 32.9437 37.928L33.1914 38.8497C33.2491 39.062 33.4409 39.2035 33.6513 39.2035C33.6941 39.2035 33.7351 39.1979 33.776 39.1867C34.0293 39.1178 34.182 38.8571 34.1131 38.6039L33.8673 37.6822C33.8152 37.4904 33.655 37.3582 33.4725 37.3322ZM28.5289 37.3322C28.3446 37.3582 28.1844 37.4904 28.1323 37.6822L27.8865 38.6039C27.8176 38.8571 27.9703 39.1178 28.2235 39.1867C28.2645 39.1979 28.3055 39.2035 28.3483 39.2035C28.5568 39.2035 28.7505 39.062 28.8082 38.8497L29.0559 37.928C29.1229 37.6748 28.9721 37.4122 28.7188 37.3452C28.6555 37.3266 28.5904 37.3247 28.5289 37.3322ZM30.9998 37.645C30.7354 37.645 30.5231 37.8591 30.5231 38.1216V39.075C30.5231 39.3375 30.7354 39.5517 30.9998 39.5517C31.2642 39.5517 31.4765 39.3375 31.4765 39.075V38.1216C31.4765 37.8591 31.2642 37.645 30.9998 37.645Z" fill="#388B40"/>
<path d="M30.9998 14.7646C23.3786 14.7646 17.1763 20.9651 17.1763 28.5882C17.1763 36.2112 23.3786 42.4117 30.9998 42.4117C38.621 42.4117 44.8233 36.2112 44.8233 28.5882C44.8233 20.9651 38.621 14.7646 30.9998 14.7646ZM30.9998 15.718C38.0959 15.718 43.87 21.4921 43.87 28.5882C43.87 35.6843 38.0959 41.4584 30.9998 41.4584C23.9037 41.4584 18.1296 35.6843 18.1296 28.5882C18.1296 21.4921 23.9037 15.718 30.9998 15.718ZM30.7913 17.6284C27.9833 17.6843 25.2611 18.822 23.2464 20.8348C18.9731 25.11 18.9731 32.0645 23.2464 36.3397C23.3395 36.4328 23.4624 36.4794 23.5834 36.4794C23.7063 36.4794 23.8292 36.4328 23.9223 36.3397C24.1085 36.1535 24.1085 35.8519 23.9223 35.6657C20.0177 31.7629 20.0196 25.4135 23.9223 21.5107C26.1847 19.2465 29.4264 18.1963 32.5918 18.7047C32.8506 18.7475 33.0964 18.5687 33.1374 18.3099C33.1802 18.0492 33.0015 17.8034 32.7426 17.7625C32.0928 17.6582 31.4392 17.6135 30.7913 17.6284ZM34.6512 18.2857C34.465 18.2931 34.2937 18.4105 34.2248 18.5948C34.1317 18.8424 34.2564 19.1162 34.5041 19.2093C34.8448 19.3359 35.18 19.483 35.5059 19.645C35.5747 19.6803 35.6474 19.6971 35.72 19.6971C35.8931 19.6971 36.0607 19.6021 36.1464 19.4346C36.2637 19.1999 36.1687 18.9132 35.9341 18.794C35.5803 18.6153 35.2098 18.4551 34.8374 18.3155C34.7759 18.2931 34.7126 18.2838 34.6512 18.2857ZM37.4032 19.8535C37.2822 19.8684 37.1668 19.928 37.0848 20.0323C36.9228 20.2389 36.9582 20.5387 37.1668 20.7007C37.4852 20.9502 37.7905 21.2221 38.0773 21.5107C41.9819 25.4135 41.9819 31.7629 38.0773 35.6657C37.8911 35.8537 37.8911 36.1535 38.0773 36.3416C38.1704 36.4328 38.2933 36.4812 38.4162 36.4812C38.5372 36.4812 38.6601 36.4328 38.7532 36.3416C43.0265 32.0664 43.0265 25.11 38.7532 20.8348C38.4385 20.522 38.1034 20.224 37.7552 19.9503C37.6509 19.8703 37.5224 19.8386 37.4032 19.8535ZM27.6631 23.3448C27.3987 23.3448 27.1864 23.5589 27.1864 23.8214C27.1864 24.084 27.3987 24.2981 27.6631 24.2981H29.5698C30.8844 24.2981 31.9531 25.3669 31.9531 26.6815C31.9531 27.9961 30.8844 29.0649 29.5698 29.0649H28.6164C28.4321 29.0649 28.2664 29.1691 28.1863 29.3348C28.1081 29.5006 28.1304 29.6961 28.244 29.8394L32.0574 34.6062C32.1524 34.7235 32.2902 34.7849 32.4298 34.7849C32.536 34.7849 32.6402 34.7514 32.7277 34.6807C32.9326 34.5168 32.9661 34.217 32.8022 34.0103L29.607 30.0182C31.2679 29.9996 32.6384 28.7595 32.8693 27.1582H34.3365C34.6009 27.1582 34.8132 26.944 34.8132 26.6815C34.8132 26.4189 34.6009 26.2048 34.3365 26.2048H32.8693C32.7613 25.4619 32.4112 24.799 31.901 24.2981H34.3365C34.6009 24.2981 34.8132 24.084 34.8132 23.8214C34.8132 23.5589 34.6009 23.3448 34.3365 23.3448H27.6631ZM27.6631 26.2048C27.3987 26.2048 27.1864 26.4189 27.1864 26.6815C27.1864 26.944 27.3987 27.1582 27.6631 27.1582H30.5231C30.7875 27.1582 30.9998 26.944 30.9998 26.6815C30.9998 26.4189 30.7875 26.2048 30.5231 26.2048H27.6631ZM26.4118 36.403C26.2256 36.3807 26.0376 36.4663 25.9407 36.6376L25.4641 37.4644C25.3319 37.6915 25.4101 37.982 25.6372 38.1142C25.7117 38.157 25.7936 38.1794 25.8756 38.1794C26.0394 38.1794 26.1995 38.0937 26.2871 37.941L26.7637 37.1143C26.8959 36.8871 26.8196 36.5948 26.5906 36.4626C26.5328 36.4309 26.4733 36.4105 26.4118 36.403ZM35.5878 36.403C35.5263 36.4105 35.4649 36.4309 35.409 36.4626C35.18 36.5948 35.1037 36.8871 35.2359 37.1162L35.7125 37.941C35.8 38.0937 35.9602 38.1794 36.124 38.1794C36.206 38.1794 36.2879 38.1589 36.3624 38.1142C36.5914 37.9839 36.6677 37.6915 36.5355 37.4644L36.0589 36.6395C35.9602 36.4682 35.7721 36.3807 35.5878 36.403ZM33.4725 37.3322C33.4111 37.3228 33.3459 37.3266 33.2808 37.3452C33.0275 37.4122 32.8767 37.6748 32.9437 37.928L33.1914 38.8497C33.2491 39.062 33.4409 39.2035 33.6513 39.2035C33.6941 39.2035 33.7351 39.1979 33.776 39.1867C34.0293 39.1178 34.182 38.8571 34.1131 38.6039L33.8673 37.6822C33.8152 37.4904 33.655 37.3582 33.4725 37.3322ZM28.5289 37.3322C28.3446 37.3582 28.1844 37.4904 28.1323 37.6822L27.8865 38.6039C27.8176 38.8571 27.9703 39.1178 28.2235 39.1867C28.2645 39.1979 28.3055 39.2035 28.3483 39.2035C28.5568 39.2035 28.7505 39.062 28.8082 38.8497L29.0559 37.928C29.1229 37.6748 28.9721 37.4122 28.7188 37.3452C28.6555 37.3266 28.5904 37.3247 28.5289 37.3322ZM30.9998 37.645C30.7354 37.645 30.5231 37.8591 30.5231 38.1216V39.075C30.5231 39.3375 30.7354 39.5517 30.9998 39.5517C31.2642 39.5517 31.4765 39.3375 31.4765 39.075V38.1216C31.4765 37.8591 31.2642 37.645 30.9998 37.645Z" stroke="#388B40" stroke-width="0.4" mask="url(#path-1-outside-1_51_22)"/>
<path d="M13.088 60V51.8979H14.5117L17.4631 56.7013L16.6298 56.6897L19.616 51.8979H20.9702V60H19.4771V56.9559C19.4771 56.2614 19.4925 55.6364 19.5234 55.0809C19.562 54.5253 19.6237 53.9736 19.7086 53.4257L19.8938 53.9234L17.3821 57.8009H16.6182L14.1876 53.9581L14.3496 53.4257C14.4345 53.9427 14.4924 54.4751 14.5232 55.023C14.5618 55.5631 14.5811 56.2074 14.5811 56.9559V60H13.088ZM25.6826 60.1157C25.0731 60.1157 24.5291 59.9807 24.0506 59.7106C23.5722 59.4329 23.1941 59.0548 22.9164 58.5763C22.6386 58.0979 22.4997 57.5539 22.4997 56.9443C22.4997 56.3348 22.6386 55.7908 22.9164 55.3123C23.1941 54.8339 23.5722 54.4597 24.0506 54.1896C24.5291 53.9118 25.0731 53.7729 25.6826 53.7729C26.2845 53.7729 26.8247 53.9118 27.3031 54.1896C27.7815 54.4597 28.1557 54.8339 28.4258 55.3123C28.7036 55.7908 28.8425 56.3348 28.8425 56.9443C28.8425 57.5539 28.7036 58.0979 28.4258 58.5763C28.1557 59.0548 27.7815 59.4329 27.3031 59.7106C26.8247 59.9807 26.2845 60.1157 25.6826 60.1157ZM25.6826 58.8541C26.0145 58.8541 26.3077 58.7692 26.5623 58.5995C26.8247 58.4297 27.0291 58.2021 27.1758 57.9166C27.3301 57.6311 27.4034 57.307 27.3957 56.9443C27.4034 56.574 27.3301 56.246 27.1758 55.9605C27.0291 55.675 26.8247 55.4512 26.5623 55.2892C26.3077 55.1194 26.0145 55.0346 25.6826 55.0346C25.3508 55.0346 25.0499 55.1194 24.7798 55.2892C24.5175 55.4512 24.313 55.6789 24.1664 55.9721C24.0198 56.2576 23.9465 56.5817 23.9465 56.9443C23.9465 57.307 24.0198 57.6311 24.1664 57.9166C24.313 58.2021 24.5175 58.4297 24.7798 58.5995C25.0499 58.7692 25.3508 58.8541 25.6826 58.8541ZM30.1159 60V53.9003H31.5049L31.528 55.1503L31.2618 55.2892C31.339 55.0114 31.4894 54.7606 31.7132 54.5369C31.937 54.3054 32.2032 54.1202 32.5119 53.9813C32.8205 53.8424 33.1369 53.7729 33.461 53.7729C33.9239 53.7729 34.3098 53.8655 34.6184 54.0507C34.9348 54.2359 35.1701 54.5137 35.3245 54.8841C35.4865 55.2545 35.5675 55.7174 35.5675 56.273V60H34.1439V56.3772C34.1439 56.0685 34.1014 55.8139 34.0165 55.6133C33.9317 55.4049 33.8005 55.2545 33.623 55.1619C33.4455 55.0616 33.2295 55.0153 32.9748 55.023C32.7665 55.023 32.5736 55.0577 32.3961 55.1271C32.2264 55.1889 32.0759 55.2815 31.9447 55.4049C31.8212 55.5207 31.7209 55.6557 31.6438 55.81C31.5743 55.9644 31.5396 56.1341 31.5396 56.3193V60H30.8336C30.6947 60 30.5635 60 30.44 60C30.3243 60 30.2163 60 30.1159 60ZM40.028 60.1157C39.3876 60.1157 38.8204 59.9807 38.3266 59.7106C37.8405 59.4406 37.4585 59.074 37.1807 58.6111C36.9106 58.1404 36.7756 57.6041 36.7756 57.0022C36.7756 56.5238 36.8528 56.0878 37.0071 55.6943C37.1614 55.3008 37.3736 54.9612 37.6437 54.6757C37.9215 54.3825 38.2494 54.1588 38.6275 54.0044C39.0133 53.8424 39.4339 53.7614 39.8891 53.7614C40.2904 53.7614 40.6646 53.8385 41.0119 53.9929C41.3591 54.1472 41.66 54.3594 41.9147 54.6294C42.1693 54.8918 42.3622 55.2082 42.4934 55.5786C42.6323 55.9412 42.6979 56.3386 42.6902 56.7707L42.6786 57.2684H37.7363L37.4701 56.2962H41.4864L41.3012 56.4929V56.2383C41.2781 55.9991 41.2009 55.7908 41.0697 55.6133C40.9385 55.4281 40.7688 55.2853 40.5605 55.185C40.3598 55.077 40.1361 55.023 39.8891 55.023C39.511 55.023 39.1908 55.0963 38.9285 55.2429C38.6738 55.3895 38.4809 55.6017 38.3497 55.8795C38.2185 56.1496 38.153 56.4891 38.153 56.898C38.153 57.2916 38.234 57.635 38.396 57.9282C38.5658 58.2214 38.8011 58.449 39.1021 58.6111C39.4107 58.7654 39.7695 58.8426 40.1785 58.8426C40.464 58.8426 40.7264 58.7963 40.9656 58.7037C41.2048 58.6111 41.4633 58.4452 41.741 58.206L42.4471 59.1898C42.2387 59.3827 41.9995 59.5486 41.7295 59.6875C41.4671 59.8187 41.1893 59.9228 40.8961 60C40.6029 60.0772 40.3135 60.1157 40.028 60.1157ZM44.764 62.6621L46.0603 59.6643L46.0719 60.6134L43.0625 53.9003H44.7061L46.3844 57.8819C46.4384 57.9822 46.4924 58.1172 46.5464 58.287C46.6005 58.449 46.6468 58.6111 46.6853 58.7731L46.396 58.8657C46.45 58.7191 46.5079 58.5648 46.5696 58.4027C46.6313 58.233 46.6892 58.0593 46.7432 57.8819L48.1784 53.9003H49.8336L47.2872 60L46.2455 62.6621H44.764Z" fill="#388B40"/>
<path d="M0 0H63V0C63 2.20914 61.2091 4 59 4H4C1.79086 4 0 2.20914 0 0V0Z" fill="#388B40"/>
</svg>
